<?xml version="1.0" encoding="iso-8859-1"?>
<!-- Generator: Adobe Illustrator 19.0.0, SVG Export Plug-In . SVG Version: 6.00 Build 0)  -->
<svg version="1.1" id="Layer_1" xmlns="http://www.w3.org/2000/svg" xmlns:xlink="http://www.w3.org/1999/xlink" x="0px" y="0px"
	 viewBox="0 0 512 512" style="enable-background:new 0 0 512 512;" xml:space="preserve">
<g>
	<g>
		<polygon points="256,58.343 28.578,271.157 100.237,271.157 117.488,255.484 125.137,248.546 134.75,239.81 256,129.688 
			377.25,239.81 386.863,248.546 394.501,255.484 411.763,271.157 483.422,271.157 		"/>
	</g>
</g>
<g>
	<g>
		<path d="M464.421,422.31v-42.277c17.562-6.418,30.13-23.291,30.13-43.048c0-25.255-20.543-45.798-45.808-45.798
			c-25.255,0-45.808,20.543-45.808,45.798c0,19.759,12.57,36.624,30.135,43.05c0.001,0,0.003,0.001,0.005,0.001v42.274h-46.211
			V290.894l-15.674-14.232l-6.05-5.507l-9.624-8.735L256,172.037l-99.516,90.384l-9.624,8.735l-6.05,5.496l-15.673,14.232v131.427
			H78.236v-42.278c17.563-6.417,30.131-23.291,30.131-43.049c0-25.255-20.543-45.798-45.808-45.798
			c-25.255,0-45.808,20.543-45.808,45.798c0,19.759,12.57,36.634,30.135,43.05c0.001,0,0.003,0.001,0.004,0.001v42.274H0v31.347
			h125.137h75.17h111.386h75.17H512V422.31H464.421z M230.4,252.171h51.2v31.347h-51.2V252.171z M311.693,422.312h-31.347v-50.155
			c0-13.427-10.919-24.346-24.346-24.346c-13.427,0-24.346,10.919-24.346,24.346v50.155h-31.347v-50.155
			c0-30.71,24.984-55.693,55.693-55.693c30.71,0,55.693,24.983,55.693,55.693V422.312z"/>
	</g>
</g>
<g>
</g>
<g>
</g>
<g>
</g>
<g>
</g>
<g>
</g>
<g>
</g>
<g>
</g>
<g>
</g>
<g>
</g>
<g>
</g>
<g>
</g>
<g>
</g>
<g>
</g>
<g>
</g>
<g>
</g>
</svg>
