<svg width="152" height="73" fill="none" xmlns="http://www.w3.org/2000/svg"><mask id="Vector__a" maskUnits="userSpaceOnUse" x="0" y="0" width="152" height="73" fill="#000"><path fill="#fff" d="M0 0h152v73H0z"/><path d="M77.637 46.283c0 11.116-9.016 20.126-20.138 20.126-11.122 0-20.139-9.01-20.139-20.126 0-11.115 9.017-20.126 20.139-20.126s20.138 9.011 20.138 20.126ZM27.85 14.697c0 7.564-6.01 13.697-13.425 13.697C7.011 28.394 1 22.26 1 14.697 1 7.132 7.01 1 14.425 1c7.415 0 13.426 6.132 13.426 13.697Zm1.679 51.153A6.152 6.152 0 0 1 23.376 72a6.151 6.151 0 0 1-6.154-6.15 6.151 6.151 0 0 1 6.154-6.15 6.152 6.152 0 0 1 6.153 6.15Z"/><path d="M59.596 56.123c-1.454 0-2.76-.233-3.915-.699a8.808 8.808 0 0 1-2.993-2.04c-.82-.895-1.455-1.967-1.902-3.215-.448-1.249-.671-2.637-.671-4.165 0-1.454.223-2.767.67-3.941a8.604 8.604 0 0 1 1.987-3.02c.857-.838 1.883-1.49 3.076-1.956 1.194-.485 2.536-.736 4.028-.755a9.54 9.54 0 0 1 1.762.168c.615.112 1.203.27 1.762.475.56.205 1.063.447 1.51.727.318.205.588.42.812.643.223.205.345.42.363.643a.897.897 0 0 1-.056.42c-.056.167-.13.325-.224.474a1.605 1.605 0 0 1-.503.503 1.03 1.03 0 0 1-.503.14c-.075 0-.206-.046-.392-.14a6.827 6.827 0 0 1-.7-.419 7.89 7.89 0 0 0-1.118-.531 7.066 7.066 0 0 0-1.343-.391 7.986 7.986 0 0 0-1.51-.14c-1.436 0-2.685.289-3.748.866a5.975 5.975 0 0 0-2.461 2.488c-.56 1.081-.849 2.358-.867 3.83.019 1.528.317 2.851.895 3.97.578 1.117 1.389 1.984 2.433 2.599 1.063.615 2.303.922 3.72.922.466 0 .942-.037 1.427-.112.484-.074.96-.177 1.426-.307a8.747 8.747 0 0 0 1.343-.531v-5.395h-4.895c-.242 0-.457-.028-.643-.084a.69.69 0 0 1-.392-.335c-.074-.168-.112-.42-.112-.755 0-.336.047-.587.14-.755a.689.689 0 0 1 .392-.335c.167-.056.373-.084.615-.084h6.07c.372 0 .652.065.838.195.187.13.317.299.392.504.093.186.14.419.14.698v6.877c0 .298-.168.615-.504.95-.317.317-.773.615-1.37.895a8.835 8.835 0 0 1-1.455.587 11.07 11.07 0 0 1-1.678.391 11.96 11.96 0 0 1-1.846.14Zm11.748-.056c-.355 0-.625-.056-.811-.168a.688.688 0 0 1-.336-.42 3.929 3.929 0 0 1-.056-.698V43.768c0-.28.028-.513.084-.7a.591.591 0 0 1 .336-.39c.167-.094.438-.14.81-.14.336 0 .588.046.756.14a.586.586 0 0 1 .364.363c.074.149.111.326.111.531l-.112.839c.131-.243.28-.485.448-.727.186-.242.41-.457.671-.643.28-.205.606-.373.98-.503.39-.13.866-.196 1.426-.196.28 0 .54.028.783.084.26.037.503.102.727.196.242.093.447.205.615.335.168.112.299.242.392.391.112.13.168.29.168.476 0 .41-.13.764-.392 1.062-.26.28-.531.42-.811.42-.242 0-.42-.029-.531-.085l-.336-.223a1.262 1.262 0 0 0-.42-.196c-.186-.075-.484-.112-.895-.112-.28 0-.578.056-.895.168-.298.112-.587.28-.867.503-.28.205-.513.475-.699.81-.168.336-.252.727-.252 1.175v7.491c0 .26-.028.484-.084.67a.673.673 0 0 1-.363.42c-.168.093-.438.14-.811.14Zm20.399-.028c-.41 0-.709-.084-.895-.252-.168-.167-.27-.428-.308-.782l.112-1.398c-.186.298-.476.643-.867 1.034-.392.373-.904.709-1.538 1.007-.634.28-1.408.419-2.322.419a6.038 6.038 0 0 1-2.517-.531 6.59 6.59 0 0 1-2.042-1.482 7.318 7.318 0 0 1-1.37-2.18 7.223 7.223 0 0 1-.476-2.628c0-.913.159-1.77.476-2.571a6.705 6.705 0 0 1 1.398-2.153 6.817 6.817 0 0 1 2.042-1.453 5.973 5.973 0 0 1 2.49-.531c.82 0 1.519.112 2.097.335a4.589 4.589 0 0 1 1.482.839c.429.335.802.717 1.119 1.146l-.056-1.174c-.019-.41.065-.699.252-.867.205-.186.522-.28.95-.28.355 0 .607.057.756.169.168.111.28.27.336.475.055.205.083.456.083.754v10.79c0 .261-.028.494-.083.699a.694.694 0 0 1-.336.447c-.168.112-.429.168-.783.168Zm-5.398-2.32c.746 0 1.426-.196 2.041-.587a4.122 4.122 0 0 0 1.483-1.566c.373-.67.56-1.434.56-2.292 0-.875-.197-1.64-.588-2.292a4.067 4.067 0 0 0-1.51-1.565 3.727 3.727 0 0 0-2.042-.587c-.877 0-1.641.205-2.294.615a4.28 4.28 0 0 0-1.51 1.593c-.373.671-.56 1.435-.56 2.292 0 .839.187 1.594.56 2.264a4.27 4.27 0 0 0 1.538 1.566c.671.373 1.445.559 2.322.559Zm16.787 2.236c-.913 0-1.743-.168-2.489-.503a5.483 5.483 0 0 1-1.902-1.398 6.974 6.974 0 0 1-1.23-2.152c-.28-.82-.41-1.724-.392-2.712 0-.968.14-1.863.42-2.683.28-.82.68-1.528 1.202-2.124a5.362 5.362 0 0 1 1.902-1.398c.746-.335 1.576-.503 2.489-.503a5.8 5.8 0 0 1 2.406.503c.764.336 1.426.81 1.986 1.426a6.197 6.197 0 0 1 1.342 2.152c.336.839.504 1.742.504 2.711 0 .97-.168 1.864-.504 2.684a6.251 6.251 0 0 1-1.342 2.124 6.005 6.005 0 0 1-1.986 1.398 6.09 6.09 0 0 1-2.406.475Zm-5.817 5.619c-.355 0-.625-.056-.811-.168a.805.805 0 0 1-.364-.42 2.35 2.35 0 0 1-.084-.67v-16.52c0-.261.028-.485.084-.671a.688.688 0 0 1 .336-.42c.186-.111.457-.167.81-.167.411 0 .71.065.896.196.205.13.326.363.364.698v16.856c.018.26 0 .484-.056.67a.677.677 0 0 1-.364.448c-.168.112-.438.168-.811.168Zm5.454-7.911c.783 0 1.492-.186 2.126-.56a4.065 4.065 0 0 0 1.482-1.592c.373-.671.559-1.435.559-2.293 0-.875-.186-1.64-.559-2.292a3.726 3.726 0 0 0-1.482-1.51c-.616-.372-1.324-.558-2.126-.558-.783 0-1.492.186-2.126.559a4.196 4.196 0 0 0-1.482 1.537c-.355.653-.532 1.407-.532 2.264 0 .858.177 1.622.532 2.293.373.67.867 1.202 1.482 1.593a4.114 4.114 0 0 0 2.126.559Zm10.606 2.404c-.354 0-.624-.056-.811-.168a.673.673 0 0 1-.363-.42 3.864 3.864 0 0 1-.056-.698V37.562c0-.26.028-.484.084-.67a.674.674 0 0 1 .363-.42c.187-.112.457-.168.811-.168.373 0 .644.056.812.168a.582.582 0 0 1 .335.42c.056.186.084.419.084.698v6.904a7.449 7.449 0 0 1 1.622-1.397c.653-.41 1.445-.615 2.378-.615 1.1 0 2.079.26 2.937.783.876.503 1.566 1.22 2.069 2.152.522.932.783 2.04.783 3.326v6.066c0 .26-.028.485-.083.67a.688.688 0 0 1-.336.42c-.168.112-.438.168-.811.168-.355 0-.625-.056-.811-.168a.672.672 0 0 1-.364-.42 2.656 2.656 0 0 1-.084-.698v-6.066c0-.782-.13-1.463-.391-2.04a2.948 2.948 0 0 0-1.175-1.342c-.504-.317-1.147-.475-1.93-.475-1.063 0-1.939.307-2.629.922-.671.597-1.063 1.398-1.175 2.404v6.625c0 .26-.028.485-.084.67a.673.673 0 0 1-.363.42c-.168.112-.439.168-.812.168Zm20.311.14c-1.119 0-2.117-.187-2.993-.56a6.781 6.781 0 0 1-2.238-1.509 6.9 6.9 0 0 1-1.37-2.236 7.606 7.606 0 0 1-.476-2.712c0-1.285.299-2.431.895-3.438a6.422 6.422 0 0 1 2.462-2.376c1.063-.596 2.275-.894 3.636-.894.932 0 1.762.149 2.489.447.746.28 1.38.662 1.902 1.146a5.252 5.252 0 0 1 1.203 1.621 4.19 4.19 0 0 1 .419 1.79c0 .95-.223 1.62-.671 2.012-.447.373-.998.56-1.65.56h-8.083c-.019.819.195 1.527.643 2.123a4.73 4.73 0 0 0 1.734 1.342 5.172 5.172 0 0 0 2.126.475 9.21 9.21 0 0 0 1.342-.083c.373-.056.699-.13.979-.224.28-.093.522-.186.727-.28a4.38 4.38 0 0 0 .532-.28c.168-.092.326-.157.475-.195a.697.697 0 0 1 .476.056.674.674 0 0 1 .391.364c.112.149.187.288.224.419.037.13.056.27.056.42 0 .26-.224.549-.671.866-.448.316-1.072.587-1.874.81-.783.224-1.678.336-2.685.336Zm-4.475-7.8h7.02c.354 0 .615-.046.783-.139.187-.093.28-.345.28-.755 0-.521-.159-.987-.476-1.397-.317-.429-.755-.774-1.314-1.035-.541-.26-1.166-.39-1.874-.39-.821 0-1.576.167-2.266.502-.671.317-1.202.755-1.594 1.314a3.08 3.08 0 0 0-.559 1.9Zm14.433 7.66c-.354 0-.625-.056-.811-.168a.688.688 0 0 1-.336-.42 3.957 3.957 0 0 1-.056-.698V43.768c0-.28.028-.513.084-.7a.591.591 0 0 1 .336-.39c.168-.094.438-.14.811-.14.336 0 .587.046.755.14a.585.585 0 0 1 .364.363c.074.149.112.326.112.531l-.112.839a7.5 7.5 0 0 1 .447-.727 3.14 3.14 0 0 1 .672-.643c.279-.205.606-.373.978-.503.392-.13.868-.196 1.427-.196.28 0 .541.028.783.084.261.037.504.102.727.196.243.093.448.205.616.335.167.112.298.242.391.391.112.13.168.29.168.476 0 .41-.131.764-.392 1.062-.261.28-.531.42-.811.42-.242 0-.419-.029-.531-.085l-.336-.223a1.26 1.26 0 0 0-.419-.196c-.187-.075-.485-.112-.895-.112-.28 0-.578.056-.895.168-.299.112-.588.28-.867.503-.28.205-.513.475-.7.81-.167.336-.251.727-.251 1.175v7.491c0 .26-.028.484-.084.67a.672.672 0 0 1-.364.42c-.168.093-.438.14-.811.14Z"/></mask><path d="M77.637 46.283c0 11.116-9.016 20.126-20.138 20.126-11.122 0-20.139-9.01-20.139-20.126 0-11.115 9.017-20.126 20.139-20.126s20.138 9.011 20.138 20.126Z" fill="#FF4E4E"/><path d="M27.85 14.697c0 7.564-6.01 13.697-13.425 13.697C7.011 28.394 1 22.26 1 14.697 1 7.132 7.01 1 14.425 1c7.415 0 13.426 6.132 13.426 13.697Z" fill="#8484FF"/><path d="M29.529 65.85A6.152 6.152 0 0 1 23.376 72a6.151 6.151 0 0 1-6.154-6.15 6.151 6.151 0 0 1 6.154-6.15 6.152 6.152 0 0 1 6.153 6.15Z" fill="#39B539"/><path d="M59.596 56.123c-1.454 0-2.76-.233-3.915-.699a8.808 8.808 0 0 1-2.993-2.04c-.82-.895-1.455-1.967-1.902-3.215-.448-1.249-.671-2.637-.671-4.165 0-1.454.223-2.767.67-3.941a8.604 8.604 0 0 1 1.987-3.02c.857-.838 1.883-1.49 3.076-1.956 1.194-.485 2.536-.736 4.028-.755a9.54 9.54 0 0 1 1.762.168c.615.112 1.203.27 1.762.475.56.205 1.063.447 1.51.727.318.205.588.42.812.643.223.205.345.42.363.643a.897.897 0 0 1-.056.42c-.056.167-.13.325-.224.474a1.605 1.605 0 0 1-.503.503 1.03 1.03 0 0 1-.503.14c-.075 0-.206-.046-.392-.14a6.827 6.827 0 0 1-.7-.419 7.89 7.89 0 0 0-1.118-.531 7.066 7.066 0 0 0-1.343-.391 7.986 7.986 0 0 0-1.51-.14c-1.436 0-2.685.289-3.748.866a5.975 5.975 0 0 0-2.461 2.488c-.56 1.081-.849 2.358-.867 3.83.019 1.528.317 2.851.895 3.97.578 1.117 1.389 1.984 2.433 2.599 1.063.615 2.303.922 3.72.922.466 0 .942-.037 1.427-.112.484-.074.96-.177 1.426-.307a8.747 8.747 0 0 0 1.343-.531v-5.395h-4.895c-.242 0-.457-.028-.643-.084a.69.69 0 0 1-.392-.335c-.074-.168-.112-.42-.112-.755 0-.336.047-.587.14-.755a.689.689 0 0 1 .392-.335c.167-.056.373-.084.615-.084h6.07c.372 0 .652.065.838.195.187.13.317.299.392.504.093.186.14.419.14.698v6.877c0 .298-.168.615-.504.95-.317.317-.773.615-1.37.895a8.835 8.835 0 0 1-1.455.587 11.07 11.07 0 0 1-1.678.391 11.96 11.96 0 0 1-1.846.14Zm11.748-.056c-.355 0-.625-.056-.811-.168a.688.688 0 0 1-.336-.42 3.929 3.929 0 0 1-.056-.698V43.768c0-.28.028-.513.084-.7a.591.591 0 0 1 .336-.39c.167-.094.438-.14.81-.14.336 0 .588.046.756.14a.586.586 0 0 1 .364.363c.074.149.111.326.111.531l-.112.839c.131-.243.28-.485.448-.727.186-.242.41-.457.671-.643.28-.205.606-.373.98-.503.39-.13.866-.196 1.426-.196.28 0 .54.028.783.084.26.037.503.102.727.196.242.093.447.205.615.335.168.112.299.242.392.391.112.13.168.29.168.476 0 .41-.13.764-.392 1.062-.26.28-.531.42-.811.42-.242 0-.42-.029-.531-.085l-.336-.223a1.262 1.262 0 0 0-.42-.196c-.186-.075-.484-.112-.895-.112-.28 0-.578.056-.895.168-.298.112-.587.28-.867.503-.28.205-.513.475-.699.81-.168.336-.252.727-.252 1.175v7.491c0 .26-.028.484-.084.67a.673.673 0 0 1-.363.42c-.168.093-.438.14-.811.14Zm20.399-.028c-.41 0-.709-.084-.895-.252-.168-.167-.27-.428-.308-.782l.112-1.398c-.186.298-.476.643-.867 1.034-.392.373-.904.709-1.538 1.007-.634.28-1.408.419-2.322.419a6.038 6.038 0 0 1-2.517-.531 6.59 6.59 0 0 1-2.042-1.482 7.318 7.318 0 0 1-1.37-2.18 7.223 7.223 0 0 1-.476-2.628c0-.913.159-1.77.476-2.571a6.705 6.705 0 0 1 1.398-2.153 6.817 6.817 0 0 1 2.042-1.453 5.973 5.973 0 0 1 2.49-.531c.82 0 1.519.112 2.097.335a4.589 4.589 0 0 1 1.482.839c.429.335.802.717 1.119 1.146l-.056-1.174c-.019-.41.065-.699.252-.867.205-.186.522-.28.95-.28.355 0 .607.057.756.169.168.111.28.27.336.475.055.205.083.456.083.754v10.79c0 .261-.028.494-.083.699a.694.694 0 0 1-.336.447c-.168.112-.429.168-.783.168Zm-5.398-2.32c.746 0 1.426-.196 2.041-.587a4.122 4.122 0 0 0 1.483-1.566c.373-.67.56-1.434.56-2.292 0-.875-.197-1.64-.588-2.292a4.067 4.067 0 0 0-1.51-1.565 3.727 3.727 0 0 0-2.042-.587c-.877 0-1.641.205-2.294.615a4.28 4.28 0 0 0-1.51 1.593c-.373.671-.56 1.435-.56 2.292 0 .839.187 1.594.56 2.264a4.27 4.27 0 0 0 1.538 1.566c.671.373 1.445.559 2.322.559Zm16.787 2.236c-.913 0-1.743-.168-2.489-.503a5.483 5.483 0 0 1-1.902-1.398 6.974 6.974 0 0 1-1.23-2.152c-.28-.82-.41-1.724-.392-2.712 0-.968.14-1.863.42-2.683.28-.82.68-1.528 1.202-2.124a5.362 5.362 0 0 1 1.902-1.398c.746-.335 1.576-.503 2.489-.503a5.8 5.8 0 0 1 2.406.503c.764.336 1.426.81 1.986 1.426a6.197 6.197 0 0 1 1.342 2.152c.336.839.504 1.742.504 2.711 0 .97-.168 1.864-.504 2.684a6.251 6.251 0 0 1-1.342 2.124 6.005 6.005 0 0 1-1.986 1.398 6.09 6.09 0 0 1-2.406.475Zm-5.817 5.619c-.355 0-.625-.056-.811-.168a.805.805 0 0 1-.364-.42 2.35 2.35 0 0 1-.084-.67v-16.52c0-.261.028-.485.084-.671a.688.688 0 0 1 .336-.42c.186-.111.457-.167.81-.167.411 0 .71.065.896.196.205.13.326.363.364.698v16.856c.018.26 0 .484-.056.67a.677.677 0 0 1-.364.448c-.168.112-.438.168-.811.168Zm5.454-7.911c.783 0 1.492-.186 2.126-.56a4.065 4.065 0 0 0 1.482-1.592c.373-.671.559-1.435.559-2.293 0-.875-.186-1.64-.559-2.292a3.726 3.726 0 0 0-1.482-1.51c-.616-.372-1.324-.558-2.126-.558-.783 0-1.492.186-2.126.559a4.196 4.196 0 0 0-1.482 1.537c-.355.653-.532 1.407-.532 2.264 0 .858.177 1.622.532 2.293.373.67.867 1.202 1.482 1.593a4.114 4.114 0 0 0 2.126.559Zm10.606 2.404c-.354 0-.624-.056-.811-.168a.673.673 0 0 1-.363-.42 3.864 3.864 0 0 1-.056-.698V37.562c0-.26.028-.484.084-.67a.674.674 0 0 1 .363-.42c.187-.112.457-.168.811-.168.373 0 .644.056.812.168a.582.582 0 0 1 .335.42c.056.186.084.419.084.698v6.904a7.449 7.449 0 0 1 1.622-1.397c.653-.41 1.445-.615 2.378-.615 1.1 0 2.079.26 2.937.783.876.503 1.566 1.22 2.069 2.152.522.932.783 2.04.783 3.326v6.066c0 .26-.028.485-.083.67a.688.688 0 0 1-.336.42c-.168.112-.438.168-.811.168-.355 0-.625-.056-.811-.168a.672.672 0 0 1-.364-.42 2.656 2.656 0 0 1-.084-.698v-6.066c0-.782-.13-1.463-.391-2.04a2.948 2.948 0 0 0-1.175-1.342c-.504-.317-1.147-.475-1.93-.475-1.063 0-1.939.307-2.629.922-.671.597-1.063 1.398-1.175 2.404v6.625c0 .26-.028.485-.084.67a.673.673 0 0 1-.363.42c-.168.112-.439.168-.812.168Zm20.311.14c-1.119 0-2.117-.187-2.993-.56a6.781 6.781 0 0 1-2.238-1.509 6.9 6.9 0 0 1-1.37-2.236 7.606 7.606 0 0 1-.476-2.712c0-1.285.299-2.431.895-3.438a6.422 6.422 0 0 1 2.462-2.376c1.063-.596 2.275-.894 3.636-.894.932 0 1.762.149 2.489.447.746.28 1.38.662 1.902 1.146a5.252 5.252 0 0 1 1.203 1.621 4.19 4.19 0 0 1 .419 1.79c0 .95-.223 1.62-.671 2.012-.447.373-.998.56-1.65.56h-8.083c-.019.819.195 1.527.643 2.123a4.73 4.73 0 0 0 1.734 1.342 5.172 5.172 0 0 0 2.126.475 9.21 9.21 0 0 0 1.342-.083c.373-.056.699-.13.979-.224.28-.093.522-.186.727-.28a4.38 4.38 0 0 0 .532-.28c.168-.092.326-.157.475-.195a.697.697 0 0 1 .476.056.674.674 0 0 1 .391.364c.112.149.187.288.224.419.037.13.056.27.056.42 0 .26-.224.549-.671.866-.448.316-1.072.587-1.874.81-.783.224-1.678.336-2.685.336Zm-4.475-7.8h7.02c.354 0 .615-.046.783-.139.187-.093.28-.345.28-.755 0-.521-.159-.987-.476-1.397-.317-.429-.755-.774-1.314-1.035-.541-.26-1.166-.39-1.874-.39-.821 0-1.576.167-2.266.502-.671.317-1.202.755-1.594 1.314a3.08 3.08 0 0 0-.559 1.9Zm14.433 7.66c-.354 0-.625-.056-.811-.168a.688.688 0 0 1-.336-.42 3.957 3.957 0 0 1-.056-.698V43.768c0-.28.028-.513.084-.7a.591.591 0 0 1 .336-.39c.168-.094.438-.14.811-.14.336 0 .587.046.755.14a.585.585 0 0 1 .364.363c.074.149.112.326.112.531l-.112.839a7.5 7.5 0 0 1 .447-.727 3.14 3.14 0 0 1 .672-.643c.279-.205.606-.373.978-.503.392-.13.868-.196 1.427-.196.28 0 .541.028.783.084.261.037.504.102.727.196.243.093.448.205.616.335.167.112.298.242.391.391.112.13.168.29.168.476 0 .41-.131.764-.392 1.062-.261.28-.531.42-.811.42-.242 0-.419-.029-.531-.085l-.336-.223a1.26 1.26 0 0 0-.419-.196c-.187-.075-.485-.112-.895-.112-.28 0-.578.056-.895.168-.299.112-.588.28-.867.503-.28.205-.513.475-.7.81-.167.336-.251.727-.251 1.175v7.491c0 .26-.028.484-.084.67a.672.672 0 0 1-.364.42c-.168.093-.438.14-.811.14Z" fill="#000"/><path d="m13.866 14.976.36-.347a.5.5 0 0 0-.852.435l.492-.088Zm31.326 32.426.312.39a.5.5 0 0 0 .047-.738l-.36.348Zm-22.376 17.89-.492.087a.5.5 0 0 0 .804.303l-.312-.39Zm-9.31-49.968 31.326 32.425.72-.695L14.225 14.63l-.72.695ZM44.88 47.01 22.504 64.9l.624.78 22.376-17.889-.624-.781ZM23.308 65.204l-8.95-50.315-.984.175 8.95 50.315.984-.175Zm32.373-9.78-.387.922.013.006.373-.928Zm-2.993-2.04-.737.675.007.008.008.008.722-.692Zm-1.902-3.215.941-.337-.941.337Zm0-8.106-.93-.37-.005.013.935.357Zm5.062-4.976.364.932.012-.005-.376-.927Zm4.028-.755v-1h-.012l.012 1Zm1.762.168-.184.983h.005l.18-.983Zm1.762.475-.344.94.344-.94Zm1.51.727.544-.84-.007-.004-.007-.004-.53.848Zm.812.643-.707.707.015.016.016.014.676-.737Zm.363.643-.996.083.003.04.007.041.986-.164Zm-.056.42-.948-.317.948.316Zm-.224.474.832.555.009-.012.007-.012-.848-.53Zm-.503.503.485.875.015-.008.014-.009-.514-.858Zm-.895 0-.447.895.447-.895Zm-.7-.419.555-.832-.023-.016-.024-.014-.507.862Zm-1.118-.531-.378.926.007.003.007.002.364-.931Zm-6.6.335.477.88-.478-.88Zm-2.462 2.488-.882-.471-.006.012.888.46Zm-.867 3.83-1-.013v.025l1-.012Zm3.328 6.569-.507.861.006.004.501-.865Zm6.573.503.27.963.012-.004.012-.003-.294-.956Zm1.343-.531.447.894.553-.276v-.618h-1Zm0-5.395h1v-1h-1v1Zm-5.538-.084-.316.949.014.005.014.004.288-.958Zm-.392-.335-.914.406.018.04.022.04.874-.486Zm.028-1.51.874.486-.874-.486Zm.392-.335-.316-.95.316.95Zm7.523.111.574-.819-.574.82Zm.392.504-.94.342.02.054.026.051.894-.447Zm-.364 8.525.707.708-.707-.708Zm-1.37.895-.424-.906-.02.01-.019.009.463.887Zm-1.455.587-.296-.955-.01.003.306.952Zm-1.678.391.155.988-.155-.988Zm9.09-.084.515-.857-.014-.009-.015-.008-.485.874Zm-.335-.42-.984.18.01.055.016.053.958-.287Zm.028-12.41.958.287-.958-.287Zm.336-.391.405.914.041-.019.039-.021-.485-.874Zm1.566 0-.486.874.056.03.059.024.37-.928Zm.364.363-.95.316.023.068.032.063.894-.447Zm.111.531.992.132.008-.066v-.066h-1Zm-.112.839-.99-.133 1.87.607-.88-.474Zm.448-.727-.793-.61-.015.02-.014.02.822.57Zm.671-.643.581.814.01-.008-.59-.806Zm.98-.503-.317-.949-.007.002-.007.003.33.944Zm2.209-.112-.225.974.041.01.042.006.142-.99Zm.727.196-.384.923.012.005.013.005.359-.933Zm.615.335-.613.79.028.022.03.02.555-.832Zm.392.391-.848.53.04.064.049.057.759-.65Zm-.224 1.538.731.682.011-.011.01-.012-.752-.66Zm-1.342.335-.555.833.052.034.056.028.447-.895Zm-.336-.223-.624.78.033.028.037.024.554-.832Zm-.42-.196-.37.928.04.017.043.013.287-.958Zm-1.79.056-.332-.943-.01.003-.009.004.351.936Zm-.867.503.591.807.017-.013.017-.013-.625-.781Zm-.699.81-.874-.485-.01.019-.01.02.894.447Zm-.336 9.337-.957-.288.957.288Zm-.363.42-.447-.895-.02.01-.019.01.486.874Zm18.693-.14-.707.707.018.018.02.018.669-.744Zm-.308-.783-.997-.08-.007.092.01.092.994-.104Zm.112-1.398.997.08-1.845-.61.848.53Zm-.867 1.034.69.725.008-.009.009-.008-.707-.708Zm-1.538 1.007.403.915.011-.005.011-.005-.425-.905Zm-4.84-.112-.42.907.009.004.412-.911Zm-2.041-1.482-.739.674.006.006.005.006.728-.686Zm-1.37-2.18-.933.36.003.01.004.009.926-.379Zm0-5.2-.926-.378-.004.01.93.369Zm1.398-2.152-.718-.696.718.696Zm2.042-1.453-.412-.911-.008.003.42.908Zm4.587-.196-.361.933.013.005.014.005.334-.943Zm1.482.839-.653.757.018.016.02.014.615-.787Zm1.119 1.146-.804.595 1.96 2.65-.157-3.293-1 .048Zm-.056-1.174-.999.045v.002l.999-.047Zm.252-.867.669.744.003-.004-.672-.74Zm1.706-.111-.6.8.022.016.023.016.555-.832Zm.336.475.964-.264-.964.264Zm0 12.243.964.263-.964-.263Zm-.336.447-.486-.874-.035.02-.034.022.555.832Zm-4.14-2.74-.525-.85-.011.007.536.844Zm1.483-1.565-.874-.485-.005.008.879.477Zm-.028-4.584-.874.486.008.015.008.014.858-.515Zm-1.51-1.565-.537.844.015.01.015.008.506-.862Zm-4.336.028.525.85.007-.003-.532-.847Zm-1.51 1.593-.874-.486.874.486Zm0 4.556-.874.486.006.01.868-.496Zm1.538 1.566-.514.858.014.008.015.008.485-.874Zm16.62 2.292.41-.912-.41.912Zm-1.902-1.398-.762.648.005.005.005.006.752-.659Zm-1.23-2.152-.947.323.003.01.004.009.94-.342Zm-.392-2.712 1 .02v-.02h-1Zm1.622-4.807-.75-.66h-.002l.752.66Zm1.902-1.398.4.917.01-.005-.41-.912Zm4.895 0-.41.912.008.004.402-.916Zm1.986 1.426-.74.672.011.012.011.012.718-.696Zm1.342 2.152-.935.354.003.009.004.009.928-.372Zm0 5.395-.925-.379-.004.01-.003.008.932.36Zm-1.342 2.124-.718-.696-.006.006-.006.006.73.684Zm-1.986 1.398.391.92.011-.004-.402-.916Zm-9.034 5.926.514-.858-.014-.008-.015-.008-.485.874Zm-.364-.42-.958.288.013.043.017.041.928-.371Zm0-17.861.958.287-.958-.287Zm.336-.42.485.875.015-.008.014-.009-.514-.858Zm1.706.029-.573.819.018.013.018.011.537-.843Zm.364.698h1v-.055l-.007-.055-.993.11Zm0 16.856h-1v.036l.002.035.998-.071Zm-.056.67-.958-.287-.004.012-.003.012.965.264Zm-.364.448-.447-.895-.056.028-.052.035.555.832Zm6.769-8.302.506.862.01-.005.009-.006-.525-.851Zm1.482-1.593-.874-.486-.005.01-.005.009.884.467Zm0-4.585-.879.478.005.01.006.009.868-.497Zm-1.482-1.51-.519.856.016.01.015.008.488-.873Zm-4.252 0-.507-.861-.011.007.518.855Zm-1.482 1.538-.868-.496-.006.01-.005.009.879.477Zm0 4.557-.885.467.005.01.006.008.874-.485Zm1.482 1.593-.536.844.014.01.015.008.507-.862Zm11.921 2.795.515-.857-.033-.02-.035-.017-.447.894Zm-.363-.42-.984.18.01.055.016.053.958-.287Zm.028-18.588-.958-.287.958.287Zm.363-.419.447.895.035-.018.033-.02-.515-.857Zm1.623 0-.555.832.052.035.056.028.447-.895Zm.335.42-.98.196.009.046.013.045.958-.288Zm.084 7.602h-1v2.703l1.759-2.052-.759-.65Zm1.622-1.397-.532-.847-.011.007.543.84Zm5.315.168-.52.854.011.007.011.006.498-.867Zm2.069 2.152-.879.475.003.007.004.007.872-.49Zm.7 10.063-.958-.288.958.288Zm-.336.42-.486-.875-.035.02-.034.022.555.832Zm-1.622 0 .514-.858-.033-.02-.034-.017-.447.894Zm-.364-.42-.965.263.004.012.003.012.958-.287Zm-.475-8.805-.912.412.912-.412Zm-1.175-1.342-.533.846.007.005.007.004.519-.855Zm-4.559.447.664.748.001-.001-.665-.747Zm-1.175 2.404-.994-.11-.006.055v.055h1Zm-.084 7.296-.958-.288.958.288Zm-.363.42-.447-.895-.056.027-.052.035.555.832Zm16.506-.252.391-.92-.391.92Zm-2.238-1.51-.737.675.01.011.01.01.717-.696Zm-1.37-2.236.935-.354-.935.354Zm.419-6.15-.86-.51.86.51Zm2.462-2.376.484.875.005-.002-.489-.873Zm6.125-.447-.379.925.014.006.014.005.351-.936Zm1.902 1.146.68-.733-.68.733Zm1.203 1.621.905-.424-.905.425Zm-.252 3.802.64.768.009-.007.009-.008-.658-.753Zm-9.733.56v-1h-.978l-.022.976 1 .023Zm.643 2.123-.8.6.011.015.011.014.778-.629Zm1.734 1.342-.417.909.009.004.408-.913Zm3.468.392-.148-.99.148.99Zm.979-.224.316.949-.316-.95Zm.727-.28.414.91-.414-.91Zm.532-.28-.486-.873-.022.012-.022.014.53.848Zm.475-.195-.217-.976-.012.003-.013.003.242.97Zm.476.056-.447.895.063.031.068.023.316-.949Zm.391.364-.894.447.04.08.055.073.799-.6Zm.224.419-.961.275.961-.275Zm-.615 1.286.578.816-.578-.816Zm-1.874.81-.269-.963-.006.002.275.961Zm-7.16-7.463-1 .026.026.974h.974v-1Zm7.803-.14-.447-.894-.019.01-.019.01.485.874Zm-.196-2.152-.804.594.007.009.006.008.791-.611Zm-1.314-1.035-.435.901.012.006.423-.907Zm-4.14.112.427.905.011-.005-.438-.9ZM142.833 55.9l.514-.857-.014-.009-.015-.008-.485.874Zm-.336-.42-.984.18.01.055.016.053.958-.287Zm.028-12.41.958.287-.958-.287Zm.336-.391.406.914.04-.019.039-.021-.485-.874Zm1.566 0-.485.874.055.03.059.024.371-.928Zm.364.363-.949.316.023.068.031.063.895-.447Zm.112.531.991.132.009-.066v-.066h-1Zm-.112.839-.991-.133 1.871.607-.88-.474Zm.447-.727-.792-.61-.015.02-.015.02.822.57Zm.672-.643.581.814.01-.008-.591-.806Zm.978-.503-.316-.949-.007.002-.007.003.33.944Zm2.21-.112-.225.974.042.01.042.006.141-.99Zm.727.196-.384.923.013.005.012.005.359-.933Zm.616.335-.614.79.029.022.03.02.555-.832Zm.391.391-.848.53.04.064.049.057.759-.65Zm-.224 1.538.731.682.011-.011.011-.012-.753-.66Zm-1.342.335-.555.833.052.034.056.028.447-.895Zm-.336-.223-.624.78.034.028.036.024.554-.832Zm-.419-.196-.371.928.041.017.043.013.287-.958Zm-1.79.056-.333-.943-.009.003-.009.004.351.936Zm-.867.503.591.807.017-.013.016-.013-.624-.781Zm-.7.81-.874-.485-.01.019-.01.02.894.447Zm-.335 9.337-.958-.288.958.288Zm-.364.42-.447-.895-.019.01-.019.01.485.874Zm-67.818-9.645c0 10.563-8.568 19.126-19.138 19.126v2c11.673 0 21.138-9.457 21.138-21.126h-2ZM57.499 65.41c-10.57 0-19.139-8.563-19.139-19.126h-2c0 11.669 9.465 21.126 21.139 21.126v-2ZM38.36 46.283c0-10.562 8.568-19.126 19.139-19.126v-2c-11.674 0-21.139 9.458-21.139 21.126h2ZM57.5 27.157c10.57 0 19.138 8.564 19.138 19.126h2c0-11.668-9.465-21.126-21.138-21.126v2Zm-30.65-12.46c0 7.031-5.582 12.697-12.426 12.697v2c7.986 0 14.426-6.6 14.426-14.697h-2ZM14.425 27.394C7.582 27.394 2 21.728 2 14.697H0c0 8.098 6.44 14.697 14.425 14.697v-2ZM2 14.697C2 7.666 7.582 2 14.425 2V0C6.44 0 0 6.599 0 14.697h2ZM14.425 2c6.844 0 12.426 5.666 12.426 12.697h2C28.85 6.599 22.41 0 14.425 0v2ZM28.53 65.85A5.151 5.151 0 0 1 23.376 71v2c3.95 0 7.153-3.2 7.153-7.15h-2ZM23.376 71a5.151 5.151 0 0 1-5.154-5.15h-2c0 3.95 3.204 7.15 7.154 7.15v-2Zm-5.154-5.15a5.151 5.151 0 0 1 5.154-5.15v-2a7.153 7.153 0 0 0-7.154 7.15h2Zm5.154-5.15a5.151 5.151 0 0 1 5.153 5.15h2a7.152 7.152 0 0 0-7.153-7.15v2Zm36.22-5.577c-1.347 0-2.522-.216-3.542-.627l-.747 1.855c1.293.522 2.728.772 4.29.772v-2Zm-3.529-.621a7.806 7.806 0 0 1-2.657-1.81l-1.444 1.383a9.805 9.805 0 0 0 3.328 2.271l.773-1.844Zm-2.642-1.794c-.723-.788-1.291-1.742-1.698-2.877l-1.883.675c.489 1.362 1.188 2.552 2.107 3.553l1.474-1.351Zm-1.698-2.877c-.403-1.125-.612-2.397-.612-3.827h-2c0 1.626.238 3.13.73 4.502l1.882-.675Zm-.612-3.827c0-1.35.207-2.541.605-3.585l-1.869-.713c-.497 1.304-.736 2.741-.736 4.298h2Zm.6-3.572a7.604 7.604 0 0 1 1.756-2.673l-1.398-1.43a9.603 9.603 0 0 0-2.217 3.365l1.86.738Zm1.756-2.673c.755-.739 1.664-1.32 2.741-1.74l-.727-1.863c-1.31.51-2.452 1.234-3.412 2.173l1.398 1.43Zm2.754-1.745c1.06-.431 2.277-.665 3.663-.682l-.024-2c-1.597.02-3.066.29-4.392.828l.752 1.854Zm3.651-.682c.513 0 1.039.05 1.578.15l.368-1.965a10.554 10.554 0 0 0-1.946-.185v2Zm1.583.152a9.648 9.648 0 0 1 1.597.43l.688-1.878a11.627 11.627 0 0 0-1.927-.52l-.358 1.968Zm1.597.43c.503.184.943.398 1.325.636l1.06-1.696a9.108 9.108 0 0 0-1.697-.818l-.688 1.878Zm1.312.628c.268.173.481.345.647.51l1.413-1.414a5.922 5.922 0 0 0-.974-.776l-1.086 1.68Zm.678.54c.052.048.065.072.064.07a.248.248 0 0 1-.021-.08l1.993-.167c-.046-.552-.342-.983-.685-1.297l-1.35 1.474Zm.053.07a.382.382 0 0 1-.005-.108c0-.006 0 .008-.013.047l1.897.633a1.88 1.88 0 0 0 .094-.9l-1.973.328Zm-.018-.061a1.2 1.2 0 0 1-.123.261l1.695 1.06c.136-.216.244-.446.325-.688l-1.897-.633Zm-.107.236a.643.643 0 0 1-.186.2l1.028 1.716a2.61 2.61 0 0 0 .821-.806l-1.663-1.11Zm-.157.184a.179.179 0 0 1-.034.016l.004-.001h.012v2c.36 0 .694-.103.988-.266l-.97-1.749Zm-.018.014a.778.778 0 0 1 .155.016c.023.006.033.01.027.007a2.148 2.148 0 0 1-.127-.057l-.894 1.789c.113.056.232.11.349.152.097.035.278.093.49.093v-2Zm.055-.034a5.915 5.915 0 0 1-.592-.357l-1.109 1.664a7.6 7.6 0 0 0 .807.482l.894-1.79Zm-.64-.387a8.86 8.86 0 0 0-1.26-.6l-.73 1.862c.392.153.715.308.977.462l1.014-1.724Zm-1.246-.595a8.057 8.057 0 0 0-1.533-.447l-.377 1.964c.427.082.81.195 1.153.335l.757-1.852Zm-1.533-.447a8.986 8.986 0 0 0-1.699-.158v2c.463 0 .903.041 1.322.122l.377-1.964Zm-1.699-.158c-1.571 0-2.99.317-4.225.988l.955 1.757c.89-.484 1.97-.745 3.27-.745v-2Zm-4.225.988a6.974 6.974 0 0 0-2.866 2.895l1.764.943a4.975 4.975 0 0 1 2.057-2.08l-.955-1.758Zm-2.872 2.907c-.645 1.245-.959 2.68-.98 4.276l2 .025c.018-1.348.282-2.466.756-3.382l-1.776-.92Zm-.98 4.301c.021 1.65.344 3.133 1.008 4.416l1.776-.918c-.493-.953-.766-2.117-.783-3.522l-2 .024Zm1.008 4.416c.66 1.279 1.6 2.288 2.814 3.002l1.015-1.723c-.876-.516-1.558-1.24-2.053-2.197l-1.776.918Zm2.82 3.006c1.238.716 2.656 1.057 4.221 1.057v-2c-1.269 0-2.33-.274-3.219-.788l-1.002 1.731Zm4.221 1.057c.52 0 1.046-.041 1.579-.123l-.304-1.977a8.38 8.38 0 0 1-1.275.1v2Zm1.579-.123c.523-.08 1.038-.192 1.544-.333l-.54-1.926c-.426.12-.863.213-1.308.282l.304 1.977Zm1.568-.34a9.758 9.758 0 0 0 1.496-.593l-.894-1.789a7.755 7.755 0 0 1-1.19.47l.588 1.912Zm2.049-1.487v-5.395h-2v5.395h2Zm-1-6.395h-4.895v2h4.895v-2Zm-4.895 0a1.26 1.26 0 0 1-.356-.042l-.575 1.916c.3.09.614.126.93.126v-2Zm-.327-.033a.338.338 0 0 1 .166.128L57.1 47.3c.204.367.523.657.95.799l.632-1.898Zm.206.207c.01.024.001.013-.009-.055a2.067 2.067 0 0 1-.017-.293h-2c0 .378.038.8.198 1.16l1.828-.812Zm-.026-.348c0-.124.009-.208.018-.258.01-.053.016-.047-.004-.011l-1.748-.972c-.217.39-.266.845-.266 1.24h2Zm.014-.269a.338.338 0 0 1-.166.127l-.633-1.897a1.688 1.688 0 0 0-.949.798l1.748.972Zm-.166.127a1.02 1.02 0 0 1 .299-.032v-2a2.94 2.94 0 0 0-.931.135l.632 1.897Zm.299-.032h6.07v-2h-6.07v2Zm6.07 0a1.2 1.2 0 0 1 .262.023c.047.01.038.016.003-.008l1.147-1.639c-.431-.301-.954-.376-1.413-.376v2Zm.265.015a.169.169 0 0 1 .022.018v.001s.002.002.003.007l1.88-.684a2.035 2.035 0 0 0-.758-.98L65.344 45.9Zm.07.131a.628.628 0 0 1 .035.252h2c0-.385-.063-.782-.246-1.147l-1.788.895Zm.035.252v6.876h2v-6.877h-2Zm0 6.876c0-.044.013-.05-.01-.007a1.134 1.134 0 0 1-.2.25l1.413 1.415c.416-.416.797-.974.797-1.658h-2Zm-.21.243c-.207.206-.552.445-1.088.696l.848 1.811c.657-.307 1.225-.665 1.653-1.092l-1.413-1.415Zm-1.127.715a7.75 7.75 0 0 1-1.288.519l.593 1.91a9.74 9.74 0 0 0 1.62-.656l-.925-1.773Zm-1.297.522c-.468.15-.977.27-1.527.355l.309 1.976c.642-.1 1.253-.242 1.83-.427l-.612-1.904Zm-1.527.355a10.93 10.93 0 0 1-1.692.128v2c.683 0 1.35-.05 2-.152l-.308-1.976Zm10.056.072c-.127 0-.213-.01-.266-.021-.054-.011-.056-.02-.031-.004l-1.029 1.715c.411.246.893.31 1.326.31v-2Zm-.326-.042a.303.303 0 0 1 .085.075.29.29 0 0 1 .052.092l-1.916.575c.13.433.409.785.808 1.006l.971-1.748Zm.163.276a2.95 2.95 0 0 1-.04-.52h-2c0 .307.022.601.072.878l1.968-.358Zm-.04-.52V43.768h-2V54.78h2Zm0-11.013c0-.221.023-.35.042-.412l-1.916-.575c-.093.31-.126.648-.126.987h2Zm.042-.412a.419.419 0 0 1-.216.235l-.812-1.827a1.59 1.59 0 0 0-.888 1.017l1.916.575Zm-.137.196c-.047.026-.055.018.013.006.063-.01.164-.02.313-.02v-2c-.411 0-.897.043-1.297.265l.971 1.749Zm.326-.014c.124 0 .207.009.258.018.053.01.048.016.011-.004l.971-1.749c-.39-.216-.845-.265-1.24-.265v2Zm.384.068a.334.334 0 0 1-.105-.074.454.454 0 0 1-.11-.175l1.898-.633a1.584 1.584 0 0 0-.94-.975l-.743 1.857Zm-.16-.118c-.009-.018.006 0 .006.084h2c0-.325-.059-.662-.217-.979l-1.789.895Zm.015-.048-.112.838 1.983.265.112-.839-1.983-.264Zm1.76 1.445c.112-.207.24-.418.389-.632l-1.644-1.139a8.753 8.753 0 0 0-.506.822l1.76.949Zm.36-.591c.123-.16.274-.307.46-.44l-1.163-1.627c-.337.24-.633.523-.883.847l1.585 1.22Zm.47-.447c.19-.139.425-.263.717-.365l-.66-1.888c-.453.158-.87.37-1.24.64l1.182 1.613Zm.703-.36c.26-.087.623-.145 1.11-.145v-2c-.63 0-1.22.073-1.742.247l.632 1.898Zm1.11-.145c.214 0 .399.021.56.058l.448-1.948a4.475 4.475 0 0 0-1.007-.11v2Zm.642.074c.185.026.345.07.485.129l.768-1.846a3.98 3.98 0 0 0-.97-.263l-.282 1.98Zm.51.14c.17.065.285.132.36.19l1.228-1.578a3.394 3.394 0 0 0-.87-.48l-.718 1.867Zm.42.233c.067.045.09.077.098.09l1.696-1.06a2.302 2.302 0 0 0-.685-.694l-1.11 1.664Zm.187.21a.327.327 0 0 1-.058-.1.237.237 0 0 1-.015-.075h2c0-.404-.128-.799-.409-1.127L77.773 44Zm-.073-.175a.562.562 0 0 1-.144.403l1.505 1.318a2.563 2.563 0 0 0 .639-1.721h-2Zm-.123.38a.534.534 0 0 1-.127.108c-.004.002-.001 0 .009-.002a.157.157 0 0 1 .038-.005v2c.647 0 1.164-.332 1.542-.737l-1.462-1.365Zm-.08.101c-.086 0-.136-.005-.159-.009-.01-.001-.008-.002.002.002.011.003.037.01.073.029l-.894 1.789c.328.164.7.19.978.19v-2Zm.023.084-.336-.224-1.108 1.665.335.224 1.11-1.665Zm-.266-.172c-.236-.19-.515-.3-.756-.373l-.575 1.916a.846.846 0 0 1 .11.04c.017.007.003.003-.028-.021l1.25-1.562Zm-.672-.344c-.374-.149-.834-.183-1.267-.183v2c.178 0 .311.008.408.02.102.013.131.026.116.02l.743-1.857Zm-1.267-.183c-.413 0-.824.083-1.227.225l.665 1.886c.231-.082.416-.11.562-.11v-2Zm-1.246.232a4.172 4.172 0 0 0-1.14.658l1.249 1.562a2.18 2.18 0 0 1 .593-.348l-.702-1.872Zm-1.107.632a3.48 3.48 0 0 0-.982 1.132l1.748.971c.124-.222.265-.378.416-.49l-1.182-1.613Zm-1.002 1.17c-.25.499-.358 1.049-.358 1.622h2c0-.322.06-.555.146-.727l-1.788-.895Zm-.358 1.622v7.491h2v-7.491h-2Zm0 7.491c0 .194-.021.316-.041.383l1.915.575a3.32 3.32 0 0 0 .126-.958h-2Zm-.041.383a.343.343 0 0 1 .147-.187l.894 1.789c.413-.207.733-.556.874-1.027l-1.915-.575Zm.108-.167c.047-.026.055-.018-.013-.006a2.03 2.03 0 0 1-.312.02v2c.41 0 .896-.044 1.296-.266l-.97-1.748Zm20.074-.014a.991.991 0 0 1-.261-.026c-.036-.01-.01-.01.034.03l-1.337 1.488c.456.41 1.054.508 1.564.508v-2Zm-.188.041c.029.03.03.046.02.02a.803.803 0 0 1-.04-.2l-1.99.21c.05.472.202.991.596 1.385l1.414-1.415Zm-.018.005.112-1.398-1.994-.16-.112 1.398 1.994.16Zm-1.733-2.008c-.13.208-.361.492-.726.857l1.414 1.415c.418-.418.765-.824 1.008-1.212l-1.696-1.06Zm-.709.84c-.294.28-.71.56-1.274.826l.851 1.81c.704-.331 1.314-.722 1.802-1.187l-1.379-1.449Zm-1.252.816c-.473.208-1.101.334-1.918.334v2c1.01 0 1.93-.154 2.725-.504l-.807-1.83Zm-1.918.334a5.04 5.04 0 0 1-2.105-.442l-.824 1.822a7.04 7.04 0 0 0 2.93.62v-2Zm-2.097-.439a5.59 5.59 0 0 1-1.734-1.26l-1.456 1.372a7.59 7.59 0 0 0 2.35 1.703l.84-1.815Zm-1.723-1.248a6.32 6.32 0 0 1-1.184-1.885l-1.851.758a8.317 8.317 0 0 0 1.557 2.475l1.478-1.348Zm-1.177-1.867a6.223 6.223 0 0 1-.408-2.267h-2c0 1.048.179 2.047.543 2.989l1.865-.722Zm-.408-2.267c0-.794.137-1.526.405-2.203l-1.86-.736a7.927 7.927 0 0 0-.545 2.94h2Zm.401-2.192a5.703 5.703 0 0 1 1.19-1.835l-1.435-1.393a7.706 7.706 0 0 0-1.606 2.47l1.851.758Zm1.19-1.835a5.817 5.817 0 0 1 1.745-1.243l-.84-1.815a7.816 7.816 0 0 0-2.34 1.665l1.436 1.393Zm1.737-1.239a4.973 4.973 0 0 1 2.077-.442v-2a6.973 6.973 0 0 0-2.901.62l.824 1.822Zm2.077-.442c.735 0 1.305.1 1.737.268l.722-1.865c-.724-.28-1.553-.403-2.459-.403v2Zm1.764.278c.476.169.858.39 1.163.653l1.307-1.514a5.588 5.588 0 0 0-1.802-1.024l-.668 1.885Zm1.2.683c.36.282.669.599.93.953l1.609-1.189a6.918 6.918 0 0 0-1.307-1.339L88.89 44.5Zm2.734.311-.056-1.174-1.998.095.056 1.175 1.998-.096Zm-.056-1.172a1.077 1.077 0 0 1 .002-.146.318.318 0 0 1 .008-.053c0-.002-.003.012-.017.036a.374.374 0 0 1-.072.086l-1.337-1.487c-.519.466-.606 1.133-.582 1.655l1.998-.09Zm-.075-.08c-.029.026-.04.021.001.01a.984.984 0 0 1 .278-.03v-2c-.547 0-1.156.115-1.624.54l1.345 1.48Zm.279-.02c.129 0 .204.01.237.018.016.003.014.004 0-.001a.404.404 0 0 1-.082-.05l1.2-1.6c-.42-.315-.952-.367-1.355-.367v2Zm.2 0a.211.211 0 0 1-.052-.053c-.017-.024-.022-.042-.022-.041l1.93-.527a1.803 1.803 0 0 0-.747-1.044l-1.109 1.665Zm-.074-.094c.025.092.048.25.048.491h2c0-.354-.032-.7-.119-1.018l-1.93.527Zm.048.491v10.79h2v-10.79h-2Zm0 10.79c0 .191-.02.333-.048.436l1.93.526c.083-.307.118-.631.118-.962h-2Zm-.048.436c0-.003.01-.032.039-.072a.34.34 0 0 1 .104-.092l.971 1.748c.43-.238.697-.623.815-1.058l-1.93-.526Zm.074-.122c.05-.032.069-.03.024-.02-.044.01-.124.02-.252.02v2c.42 0 .922-.06 1.337-.336l-1.109-1.664Zm-5.626-.32c.931 0 1.799-.248 2.578-.743l-1.073-1.688c-.451.287-.945.43-1.505.43v2Zm2.567-.736a5.121 5.121 0 0 0 1.835-1.94l-1.757-.954c-.27.499-.643.892-1.129 1.192l1.05 1.702Zm1.83-1.93c.466-.837.686-1.772.686-2.779h-2c0 .708-.152 1.301-.433 1.807l1.748.971Zm.686-2.779c0-1.029-.231-1.976-.73-2.806l-1.715 1.029c.285.474.445 1.055.445 1.777h2Zm-.713-2.778a5.066 5.066 0 0 0-1.878-1.941l-1.013 1.724c.473.278.853.667 1.143 1.19l1.748-.973Zm-1.848-1.923a4.727 4.727 0 0 0-2.578-.743v2c.56 0 1.054.144 1.505.43l1.073-1.687Zm-2.578-.743c-1.038 0-1.993.245-2.826.768l1.064 1.694c.472-.297 1.047-.462 1.762-.462v-2Zm-2.82.764a5.279 5.279 0 0 0-1.858 1.958l1.748.972a3.28 3.28 0 0 1 1.161-1.228l-1.05-1.702Zm-1.858 1.958c-.465.837-.686 1.771-.686 2.778h2c0-.707.153-1.3.434-1.806l-1.748-.972Zm-.686 2.778c0 .993.223 1.917.686 2.75l1.748-.971c-.283-.51-.434-1.094-.434-1.779h-2Zm.692 2.76a5.27 5.27 0 0 0 1.892 1.927l1.028-1.715a3.27 3.27 0 0 1-1.184-1.204l-1.736.993Zm1.92 1.944c.84.466 1.786.685 2.808.685v-2c-.731 0-1.334-.154-1.837-.433l-.97 1.748Zm19.595.921c-.788 0-1.476-.144-2.079-.415l-.82 1.824c.889.4 1.861.591 2.899.591v-2Zm-2.079-.415a4.484 4.484 0 0 1-1.56-1.144l-1.504 1.317a6.482 6.482 0 0 0 2.244 1.651l.82-1.824Zm-1.55-1.133a5.976 5.976 0 0 1-1.053-1.847l-1.88.684a7.972 7.972 0 0 0 1.409 2.458l1.525-1.295Zm-1.046-1.828c-.237-.696-.355-1.482-.338-2.37l-2-.037c-.02 1.087.123 2.109.445 3.053l1.893-.646Zm-.338-2.389c0-.871.126-1.656.366-2.36l-1.893-.646c-.319.936-.473 1.94-.473 3.007h2Zm.366-2.36c.242-.708.58-1.3 1.009-1.789l-1.505-1.317a7.243 7.243 0 0 0-1.397 2.46l1.893.646Zm1.007-1.787a4.356 4.356 0 0 1 1.551-1.141l-.799-1.834a6.358 6.358 0 0 0-2.254 1.654l1.502 1.321Zm1.561-1.146c.603-.27 1.291-.415 2.079-.415v-2c-1.038 0-2.01.191-2.899.591l.82 1.824Zm2.079-.415c.724 0 1.385.14 1.996.415l.82-1.824a6.795 6.795 0 0 0-2.816-.591v2Zm2.004.419c.637.28 1.183.672 1.648 1.182l1.479-1.345a6.81 6.81 0 0 0-2.323-1.669l-.804 1.832Zm1.67 1.206c.475.49.852 1.089 1.125 1.81l1.871-.708a7.212 7.212 0 0 0-1.56-2.494l-1.436 1.392Zm1.132 1.828a6.23 6.23 0 0 1 .432 2.34h2a8.234 8.234 0 0 0-.575-3.084l-1.857.744Zm.432 2.34c0 .85-.147 1.615-.429 2.304l1.851.758c.389-.951.578-1.976.578-3.063h-2Zm-.436 2.322a5.265 5.265 0 0 1-1.128 1.79l1.436 1.391a7.271 7.271 0 0 0 1.557-2.46l-1.865-.72Zm-1.14 1.801a4.987 4.987 0 0 1-1.658 1.166l.804 1.832a6.998 6.998 0 0 0 2.313-1.63l-1.459-1.368Zm-1.647 1.161a5.09 5.09 0 0 1-2.015.396v2c.985 0 1.92-.182 2.797-.555l-.782-1.84Zm-7.832 6.015c-.127 0-.213-.01-.266-.022-.054-.01-.056-.019-.031-.004l-1.029 1.715c.411.247.893.31 1.326.31v-2Zm-.326-.042a.21.21 0 0 1 .053.044.127.127 0 0 1 .026.039l-1.856.743c.156.39.428.712.806.922l.971-1.748Zm.109.167a1.39 1.39 0 0 1-.042-.383h-2c0 .327.035.653.126.958l1.916-.575Zm-.042-.383v-16.52h-2v16.52h2Zm0-16.52c0-.195.022-.316.042-.384l-1.916-.575a3.341 3.341 0 0 0-.126.959h2Zm.042-.384a.285.285 0 0 1-.051.093.301.301 0 0 1-.086.075l-.97-1.749c-.4.222-.679.574-.809 1.006l1.916.575Zm-.108.151c-.025.015-.023.007.03-.004a1.36 1.36 0 0 1 .267-.021v-2c-.433 0-.915.064-1.326.31l1.029 1.715Zm.297-.025c.156 0 .258.013.318.026.061.013.049.02.004-.011l1.146-1.639c-.443-.31-.996-.376-1.468-.376v2Zm.358.04a.337.337 0 0 1-.105-.11c-.01-.02.003-.004.012.075l1.987-.221c-.057-.513-.27-1.083-.82-1.432l-1.074 1.687Zm-.1-.146v16.856h2V43.432h-2Zm.003 16.927a.924.924 0 0 1-.016.312l1.915.575c.1-.335.12-.687.096-1.03l-1.995.143Zm-.023.336a.294.294 0 0 1 .056-.102.312.312 0 0 1 .098-.082l.894 1.79c.447-.224.752-.606.881-1.08l-1.93-.526Zm.046-.121c.055-.037.077-.032.024-.022-.05.01-.14.022-.28.022v2c.426 0 .945-.056 1.365-.336l-1.109-1.664Zm5.198-5.911c.949 0 1.835-.228 2.632-.697l-1.013-1.724a3.119 3.119 0 0 1-1.619.421v2Zm2.651-.708a5.073 5.073 0 0 0 1.841-1.977l-1.768-.934a3.07 3.07 0 0 1-1.124 1.209l1.051 1.702Zm1.831-1.959c.465-.836.685-1.77.685-2.778h-2c0 .708-.152 1.301-.433 1.807l1.748.971Zm.685-2.778c0-1.02-.218-1.961-.691-2.788l-1.736.993c.273.477.427 1.065.427 1.795h2Zm-.68-2.769a4.733 4.733 0 0 0-1.874-1.905l-.975 1.746c.465.26.825.624 1.091 1.114l1.758-.955Zm-1.843-1.887c-.789-.478-1.681-.704-2.644-.704v2c.64 0 1.166.147 1.607.414l1.037-1.71Zm-2.644-.704c-.949 0-1.835.228-2.633.697l1.014 1.724a3.116 3.116 0 0 1 1.619-.421v-2Zm-2.644.704a5.194 5.194 0 0 0-1.832 1.896l1.736.993a3.193 3.193 0 0 1 1.132-1.179l-1.036-1.71Zm-1.843 1.915c-.445.82-.653 1.744-.653 2.742h2c0-.717.147-1.303.411-1.787l-1.758-.955Zm-.653 2.742c0 .998.208 1.926.647 2.759l1.769-.934c-.269-.51-.416-1.11-.416-1.825h-2Zm.658 2.777a5.355 5.355 0 0 0 1.82 1.952l1.073-1.688a3.352 3.352 0 0 1-1.145-1.235l-1.748.971Zm1.849 1.97a5.119 5.119 0 0 0 2.633.697v-2a3.116 3.116 0 0 1-1.619-.421l-1.014 1.724Zm13.239 1.1c-.127 0-.213-.01-.266-.02-.053-.011-.056-.02-.03-.004l-1.029 1.715c.411.246.892.31 1.325.31v-2Zm-.364-.061c.01.004.042.023.078.064a.353.353 0 0 1 .07.123l-1.916.575c.141.471.461.82.874 1.027l.894-1.79Zm.174.296a2.87 2.87 0 0 1-.04-.52h-2c0 .307.022.601.072.878l1.968-.358Zm-.04-.52V37.562h-2v17.22h2Zm0-17.219c0-.194.021-.316.041-.383l-1.915-.575a3.328 3.328 0 0 0-.126.958h2Zm.041-.383a.332.332 0 0 1-.147.188l-.894-1.79a1.672 1.672 0 0 0-.874 1.027l1.915.575Zm-.079.15c-.026.016-.023.008.03-.004.053-.01.139-.02.266-.02v-2c-.433 0-.914.063-1.325.31l1.029 1.715Zm.296-.025c.141 0 .23.011.28.021.053.011.032.015-.023-.02l1.109-1.665c-.421-.28-.939-.336-1.366-.336v2Zm.365.063a.422.422 0 0 1-.198-.279l1.961-.393a1.585 1.585 0 0 0-.869-1.117l-.894 1.789Zm-.176-.188a1.5 1.5 0 0 1 .042.411h2a3.46 3.46 0 0 0-.126-.986l-1.916.575Zm.042.411v6.904h2V37.59h-2Zm1.759 7.555a6.439 6.439 0 0 1 1.406-1.208l-1.086-1.68a8.435 8.435 0 0 0-1.838 1.587l1.518 1.301Zm1.395-1.201c.463-.291 1.062-.462 1.846-.462v-2c-1.081 0-2.067.239-2.91.768l1.064 1.694Zm1.846-.462c.935 0 1.731.22 2.417.637l1.039-1.709c-1.029-.626-2.191-.928-3.456-.928v2Zm2.439.65c.707.406 1.268.984 1.688 1.76l1.759-.95c-.587-1.088-1.406-1.944-2.452-2.545l-.995 1.735Zm1.695 1.774c.423.755.655 1.688.655 2.837h2c0-1.422-.289-2.706-.91-3.815l-1.745.978Zm.655 2.837v6.066h2v-6.066h-2Zm0 6.066c0 .195-.021.316-.041.383l1.915.575a3.32 3.32 0 0 0 .126-.958h-2Zm-.041.383a.31.31 0 0 1 .136-.167l.971 1.748c.399-.221.679-.573.808-1.006l-1.915-.575Zm.067-.125c.055-.036.077-.032.024-.021-.05.01-.14.02-.28.02v2c.426 0 .945-.054 1.365-.335l-1.109-1.664Zm-.256 0c-.127 0-.213-.01-.266-.021-.054-.011-.056-.02-.031-.004l-1.029 1.715c.411.246.893.31 1.326.31v-2Zm-.364-.062a.353.353 0 0 1 .147.188l-1.916.574c.142.471.461.82.875 1.027l.894-1.79Zm.154.212a1.667 1.667 0 0 1-.049-.436h-2c0 .33.035.654.119.962l1.93-.526Zm-.049-.436v-6.066h-2v6.066h2Zm0-6.066c0-.892-.149-1.718-.48-2.452l-1.823.824c.191.421.303.955.303 1.628h2Zm-.48-2.452a3.95 3.95 0 0 0-1.567-1.785l-1.038 1.71c.343.208.601.497.782.899l1.823-.824Zm-1.554-1.776c-.706-.445-1.549-.63-2.462-.63v2c.653 0 1.096.133 1.397.322l1.065-1.692Zm-2.462-.63c-1.269 0-2.394.374-3.295 1.177l1.331 1.493c.48-.428 1.107-.67 1.964-.67v-2Zm-3.293 1.176c-.88.782-1.369 1.822-1.505 3.04l1.988.222c.088-.794.382-1.356.845-1.767l-1.328-1.495Zm-1.511 3.151v6.625h2v-6.625h-2Zm0 6.625c0 .195-.021.316-.042.383l1.916.575a3.32 3.32 0 0 0 .126-.958h-2Zm-.042.383a.353.353 0 0 1 .148-.187l.894 1.789c.413-.207.733-.556.874-1.027l-1.916-.575Zm.04-.125c.055-.036.076-.032.023-.021a1.44 1.44 0 0 1-.28.02v2c.427 0 .945-.054 1.366-.335l-1.109-1.664Zm20.054.14c-1.008 0-1.869-.168-2.602-.48l-.782 1.84c1.019.435 2.154.64 3.384.64v-2Zm-2.602-.48a5.767 5.767 0 0 1-1.911-1.285l-1.435 1.393a7.76 7.76 0 0 0 2.564 1.733l.782-1.84Zm-1.891-1.264a5.892 5.892 0 0 1-1.173-1.915l-1.87.708a7.88 7.88 0 0 0 1.568 2.557l1.475-1.35Zm-1.173-1.915a6.606 6.606 0 0 1-.411-2.358h-2c0 1.08.177 2.105.541 3.066l1.87-.708Zm-.411-2.358c0-1.124.259-2.09.756-2.928l-1.721-1.02c-.697 1.176-1.035 2.502-1.035 3.949h2Zm.756-2.928a5.414 5.414 0 0 1 2.085-2.01l-.968-1.75a7.419 7.419 0 0 0-2.838 2.74l1.721 1.02Zm2.09-2.014c.897-.502 1.937-.766 3.147-.766v-2c-1.512 0-2.896.333-4.126 1.022l.979 1.745Zm3.147-.766c.826 0 1.523.132 2.11.372l.758-1.85c-.867-.356-1.83-.522-2.868-.522v2Zm2.138.383c.638.24 1.157.557 1.573.943l1.36-1.466c-.628-.583-1.378-1.03-2.231-1.35l-.702 1.873Zm1.573.943c.435.404.757.842.977 1.313l1.811-.85a6.228 6.228 0 0 0-1.428-1.929l-1.36 1.466Zm.977 1.313c.224.478.325.93.325 1.364h2c0-.757-.178-1.498-.514-2.213l-1.811.85Zm.325 1.364c0 .832-.2 1.148-.329 1.26l1.316 1.506c.766-.67 1.013-1.697 1.013-2.766h-2Zm-.311 1.245c-.246.205-.561.327-1.01.327v2c.856 0 1.641-.25 2.29-.79l-1.28-1.537Zm-1.01.327h-8.083v2h8.083v-2Zm-9.083.977c-.023 1.02.247 1.954.843 2.748l1.6-1.2c-.3-.4-.458-.883-.444-1.502l-1.999-.046Zm.865 2.776a5.728 5.728 0 0 0 2.095 1.622l.834-1.818a3.732 3.732 0 0 1-1.373-1.06l-1.556 1.255Zm2.104 1.626a6.168 6.168 0 0 0 2.534.562v-2a4.176 4.176 0 0 1-1.718-.388l-.816 1.826Zm2.534.562c.554 0 1.054-.029 1.491-.094l-.297-1.978a8.228 8.228 0 0 1-1.194.072v2Zm1.491-.094a6.855 6.855 0 0 0 1.146-.264l-.632-1.898a4.87 4.87 0 0 1-.811.184l.297 1.977Zm1.146-.264c.304-.101.58-.207.825-.318l-.827-1.821a6.637 6.637 0 0 1-.63.241l.632 1.898Zm.825-.318a5.64 5.64 0 0 0 .648-.342l-1.06-1.696c-.103.064-.24.137-.415.217l.827 1.82Zm.603-.316a.998.998 0 0 1 .233-.1l-.485-1.94a2.99 2.99 0 0 0-.719.292l.971 1.748Zm.207-.094a.3.3 0 0 1-.188-.026l.894-1.788a1.698 1.698 0 0 0-1.14-.138l.434 1.952Zm-.057.029a.394.394 0 0 1-.141-.083c-.036-.034-.048-.059-.046-.055l1.789-.895a1.673 1.673 0 0 0-.97-.865l-.632 1.898Zm-.092.015c.03.04.048.07.057.087.009.018.008.02.005.007l1.923-.55a2.308 2.308 0 0 0-.386-.745l-1.599 1.2Zm.062.094a.535.535 0 0 1 .017.144h2c0-.233-.029-.466-.094-.694l-1.923.55Zm.017.144c0-.165.071-.238.042-.2a.894.894 0 0 1-.089.092c-.05.044-.116.097-.202.158l1.156 1.633a3.36 3.36 0 0 0 .716-.658c.194-.251.377-.6.377-1.025h-2Zm-.249.05c-.318.226-.822.457-1.565.664l.537 1.926c.862-.24 1.607-.549 2.184-.957l-1.156-1.633Zm-1.571.666c-.675.193-1.475.297-2.41.297v2c1.079 0 2.069-.12 2.959-.374l-.549-1.923Zm-6.885-5.502h7.02v-2h-7.02v2Zm7.02 0c.403 0 .874-.046 1.269-.266l-.971-1.748c.041-.023.048-.016-.012-.005-.057.01-.15.019-.286.019v2Zm1.23-.245c.38-.19.592-.513.701-.806a2.45 2.45 0 0 0 .132-.844h-2c0 .066-.004.111-.008.139-.004.028-.007.028 0 .01a.442.442 0 0 1 .074-.123.631.631 0 0 1 .207-.165l.894 1.789Zm.833-1.65a3.22 3.22 0 0 0-.685-2.009l-1.582 1.223c.181.234.267.484.267.786h2Zm-.672-1.992c-.43-.582-1.009-1.026-1.696-1.346l-.845 1.813c.432.201.73.448.933.722l1.608-1.189Zm-1.684-1.34c-.698-.337-1.476-.49-2.308-.49v2c.585 0 1.056.106 1.439.291l.869-1.801Zm-2.308-.49c-.961 0-1.867.197-2.703.603l.875 1.799a4.11 4.11 0 0 1 1.828-.403v-2Zm-2.693.598c-.814.384-1.486.93-1.986 1.644l1.638 1.148c.283-.405.674-.734 1.202-.983l-.854-1.809Zm-1.986 1.644a4.088 4.088 0 0 0-.74 2.501l1.999-.052a2.087 2.087 0 0 1 .379-1.301l-1.638-1.148Zm14.693 9.134c-.127 0-.213-.01-.266-.021-.053-.011-.056-.02-.031-.004l-1.028 1.715c.411.246.892.31 1.325.31v-2Zm-.326-.042a.297.297 0 0 1 .086.075.29.29 0 0 1 .051.092l-1.916.575c.13.433.409.785.808 1.006l.971-1.748Zm.163.276a2.967 2.967 0 0 1-.04-.52h-2c0 .307.022.601.072.878l1.968-.358Zm-.04-.52V43.768h-2V54.78h2Zm0-11.013c0-.221.023-.35.042-.412l-1.916-.575c-.093.31-.126.648-.126.987h2Zm.042-.412a.418.418 0 0 1-.216.235l-.812-1.827c-.452.2-.753.57-.888 1.017l1.916.575Zm-.137.196c-.046.026-.055.018.013.006.064-.01.165-.02.313-.02v-2c-.411 0-.897.043-1.297.265l.971 1.749Zm.326-.014c.124 0 .208.009.259.018.052.01.047.016.011-.004l.971-1.749c-.39-.216-.846-.265-1.241-.265v2Zm.384.068a.334.334 0 0 1-.105-.074.458.458 0 0 1-.109-.175l1.897-.633a1.583 1.583 0 0 0-.941-.975l-.742 1.857Zm-.16-.118c-.009-.018.007 0 .007.084h2c0-.325-.06-.662-.218-.979l-1.789.895Zm.015-.048-.111.838 1.982.265.112-.839-1.983-.264Zm1.76 1.445c.112-.207.241-.418.389-.632l-1.644-1.139a8.968 8.968 0 0 0-.506.822l1.761.949Zm.36-.591c.123-.16.275-.307.46-.44l-1.162-1.627c-.338.24-.634.523-.883.847l1.585 1.22Zm.47-.447c.189-.139.425-.263.718-.365l-.661-1.888c-.453.158-.87.37-1.24.64l1.183 1.613Zm.704-.36c.26-.087.622-.145 1.11-.145v-2c-.631 0-1.22.073-1.743.247l.633 1.898Zm1.11-.145c.213 0 .398.021.558.058l.45-1.948a4.48 4.48 0 0 0-1.008-.11v2Zm.642.074c.185.026.344.07.484.129l.769-1.846a3.976 3.976 0 0 0-.971-.263l-.282 1.98Zm.509.14c.171.065.285.132.361.19l1.227-1.578a3.38 3.38 0 0 0-.87-.48l-.718 1.867Zm.42.233a.309.309 0 0 1 .098.09l1.696-1.06a2.301 2.301 0 0 0-.685-.694l-1.109 1.664Zm.187.21a.333.333 0 0 1-.058-.101.227.227 0 0 1-.015-.074h2c0-.404-.128-.799-.409-1.127L150.073 44Zm-.073-.175a.56.56 0 0 1-.144.403l1.505 1.318a2.562 2.562 0 0 0 .639-1.721h-2Zm-.122.38a.547.547 0 0 1-.127.108l.008-.002a.16.16 0 0 1 .038-.005v2c.647 0 1.164-.332 1.542-.737l-1.461-1.365Zm-.081.101a.996.996 0 0 1-.158-.009c-.011-.001-.009-.002.002.002.01.003.036.01.072.029l-.894 1.789c.328.164.7.19.978.19v-2Zm.023.084-.335-.224-1.109 1.665.335.224 1.109-1.665Zm-.265-.172a2.24 2.24 0 0 0-.757-.373l-.574 1.916a.886.886 0 0 1 .109.04c.017.007.003.003-.027-.021l1.249-1.562Zm-.673-.344c-.373-.149-.834-.183-1.266-.183v2c.177 0 .311.008.407.02.102.013.131.026.117.02l.742-1.857Zm-1.266-.183a3.69 3.69 0 0 0-1.228.225l.665 1.886a1.71 1.71 0 0 1 .563-.11v-2Zm-1.246.232a4.167 4.167 0 0 0-1.141.658l1.249 1.562c.207-.166.405-.277.594-.348l-.702-1.872Zm-1.108.632a3.49 3.49 0 0 0-.982 1.132l1.748.971c.124-.222.265-.378.417-.49l-1.183-1.613Zm-1.002 1.17c-.249.499-.357 1.049-.357 1.622h2c0-.322.06-.555.146-.727l-1.789-.895Zm-.357 1.622v7.491h2v-7.491h-2Zm0 7.491c0 .194-.022.316-.042.383l1.916.575c.091-.305.126-.63.126-.958h-2Zm-.042.383a.364.364 0 0 1 .069-.123.286.286 0 0 1 .078-.064l.894 1.789c.414-.207.733-.556.875-1.027l-1.916-.575Zm.109-.167c.046-.026.055-.018-.013-.006-.064.01-.165.02-.313.02v2c.411 0 .897-.044 1.297-.266l-.971-1.748Z" fill="#000" mask="url(#Vector__a)"/></svg>