<svg xmlns="http://www.w3.org/2000/svg" width="277" height="127" fill="none" viewBox="0 0 277 127">
  <path stroke="#000" stroke-linejoin="round" stroke-width="2" d="M39.744 113.471 24.42 27.276l74.702 54.59-59.378 31.605Z"/>
  <circle cx="101" cy="81" r="36" fill="#FF4E4E"/>
  <path fill="#000" d="M104.75 98.6c-2.6 0-4.933-.417-7-1.25-2.067-.867-3.85-2.083-5.35-3.65-1.467-1.6-2.6-3.517-3.4-5.75-.8-2.233-1.2-4.717-1.2-7.45 0-2.6.4-4.95 1.2-7.05.833-2.1 2.017-3.9 3.55-5.4 1.533-1.5 3.367-2.667 5.5-3.5 2.133-.867 4.533-1.317 7.2-1.35 1.033 0 2.083.1 3.15.3 1.1.2 2.15.483 3.15.85s1.9.8 2.7 1.3c.567.367 1.05.75 1.45 1.15.4.367.617.75.65 1.15.033.2 0 .45-.1.75s-.233.583-.4.85c-.267.4-.567.7-.9.9-.3.167-.6.25-.9.25-.133 0-.367-.083-.7-.25-.333-.167-.75-.417-1.25-.75a14.078 14.078 0 0 0-2-.95 12.61 12.61 0 0 0-2.4-.7 14.272 14.272 0 0 0-2.7-.25c-2.567 0-4.8.517-6.7 1.55-1.9 1.033-3.367 2.517-4.4 4.45-1 1.933-1.517 4.217-1.55 6.85.033 2.733.567 5.1 1.6 7.1 1.033 2 2.483 3.55 4.35 4.65 1.9 1.1 4.117 1.65 6.65 1.65.833 0 1.683-.067 2.55-.2a21.639 21.639 0 0 0 2.55-.55 15.623 15.623 0 0 0 2.4-.95V82.7h-8.75c-.433 0-.817-.05-1.15-.15-.3-.1-.533-.3-.7-.6-.133-.3-.2-.75-.2-1.35 0-.6.083-1.05.25-1.35.167-.3.4-.5.7-.6.3-.1.667-.15 1.1-.15h10.85c.667 0 1.167.117 1.5.35.333.233.567.533.7.9.167.333.25.75.25 1.25v12.3c0 .533-.3 1.1-.9 1.7-.567.567-1.383 1.1-2.45 1.6-.767.4-1.633.75-2.6 1.05-.933.3-1.933.533-3 .7-1.067.167-2.167.25-3.3.25Zm21-.1c-.633 0-1.116-.1-1.45-.3a1.23 1.23 0 0 1-.6-.75 7.097 7.097 0 0 1-.1-1.25V76.5c0-.5.05-.917.15-1.25.1-.333.3-.567.6-.7.3-.167.784-.25 1.45-.25.6 0 1.05.083 1.35.25.334.133.55.35.65.65.134.267.2.583.2.95l-.2 1.5c.234-.433.5-.867.8-1.3a5.66 5.66 0 0 1 1.2-1.15 6.664 6.664 0 0 1 1.75-.9c.7-.233 1.55-.35 2.55-.35.5 0 .967.05 1.4.15.467.067.9.183 1.3.35.434.167.8.367 1.1.6.3.2.534.433.7.7.2.233.3.517.3.85 0 .733-.233 1.367-.7 1.9-.466.5-.95.75-1.45.75-.433 0-.75-.05-.95-.15l-.6-.4c-.166-.133-.416-.25-.75-.35-.333-.133-.866-.2-1.6-.2-.5 0-1.033.1-1.6.3-.533.2-1.05.5-1.55.9-.5.367-.916.85-1.25 1.45-.3.6-.45 1.3-.45 2.1v13.4c0 .467-.05.867-.15 1.2-.1.333-.316.583-.65.75-.3.167-.783.25-1.45.25Zm36.467-.05c-.734 0-1.267-.15-1.6-.45-.3-.3-.484-.767-.55-1.4l.2-2.5c-.334.533-.85 1.15-1.55 1.85-.7.667-1.617 1.267-2.75 1.8-1.134.5-2.517.75-4.15.75-1.6 0-3.1-.317-4.5-.95a11.772 11.772 0 0 1-3.65-2.65 13.079 13.079 0 0 1-2.45-3.9c-.567-1.467-.85-3.033-.85-4.7 0-1.633.283-3.167.85-4.6.6-1.467 1.433-2.75 2.5-3.85a12.17 12.17 0 0 1 3.65-2.6c1.4-.633 2.883-.95 4.45-.95 1.466 0 2.716.2 3.75.6 1.033.367 1.916.867 2.65 1.5.766.6 1.433 1.283 2 2.05l-.1-2.1c-.034-.733.116-1.25.45-1.55.366-.333.933-.5 1.7-.5.633 0 1.083.1 1.35.3.3.2.5.483.6.85.1.367.15.817.15 1.35v19.3c0 .467-.05.883-.15 1.25-.1.367-.3.633-.6.8-.3.2-.767.3-1.4.3Zm-9.65-4.15c1.333 0 2.55-.35 3.65-1.05a7.38 7.38 0 0 0 2.65-2.8c.666-1.2 1-2.567 1-4.1 0-1.567-.35-2.933-1.05-4.1-.667-1.2-1.567-2.133-2.7-2.8a6.661 6.661 0 0 0-3.65-1.05c-1.567 0-2.934.367-4.1 1.1a7.643 7.643 0 0 0-2.7 2.85c-.667 1.2-1 2.567-1 4.1 0 1.5.333 2.85 1 4.05a7.63 7.63 0 0 0 2.75 2.8c1.2.667 2.583 1 4.15 1Zm30.011 4c-1.634 0-3.117-.3-4.45-.9a9.79 9.79 0 0 1-3.4-2.5c-.934-1.1-1.667-2.383-2.2-3.85-.5-1.467-.734-3.083-.7-4.85 0-1.733.25-3.333.75-4.8.5-1.467 1.216-2.733 2.15-3.8a9.578 9.578 0 0 1 3.4-2.5c1.333-.6 2.816-.9 4.45-.9 1.533 0 2.966.3 4.3.9 1.366.6 2.55 1.45 3.55 2.55 1.033 1.067 1.833 2.35 2.4 3.85.6 1.5.9 3.117.9 4.85 0 1.733-.3 3.333-.9 4.8-.567 1.467-1.367 2.733-2.4 3.8a10.72 10.72 0 0 1-3.55 2.5c-1.334.567-2.767.85-4.3.85Zm-10.4 10.05c-.634 0-1.117-.1-1.45-.3a1.442 1.442 0 0 1-.65-.75c-.1-.333-.15-.733-.15-1.2V76.55c0-.467.05-.867.15-1.2.1-.333.3-.583.6-.75.333-.2.816-.3 1.45-.3.733 0 1.266.117 1.6.35.366.233.583.65.65 1.25v30.15c.033.467 0 .867-.1 1.2-.1.367-.317.633-.65.8-.3.2-.784.3-1.45.3Zm9.75-14.15c1.4 0 2.666-.333 3.8-1a7.284 7.284 0 0 0 2.65-2.85c.666-1.2 1-2.567 1-4.1 0-1.567-.334-2.933-1-4.1a6.674 6.674 0 0 0-2.65-2.7c-1.1-.667-2.367-1-3.8-1-1.4 0-2.667.333-3.8 1-1.1.667-1.984 1.583-2.65 2.75-.634 1.167-.95 2.517-.95 4.05s.316 2.9.95 4.1c.666 1.2 1.55 2.15 2.65 2.85 1.133.667 2.4 1 3.8 1Zm18.961 4.3c-.634 0-1.117-.1-1.45-.3a1.201 1.201 0 0 1-.65-.75 7.003 7.003 0 0 1-.1-1.25V65.4c0-.467.05-.867.15-1.2.1-.333.316-.583.65-.75.333-.2.816-.3 1.45-.3.666 0 1.15.1 1.45.3.333.167.533.417.6.75.1.333.15.75.15 1.25V77.8c.8-.933 1.766-1.767 2.9-2.5 1.166-.733 2.583-1.1 4.25-1.1 1.966 0 3.716.467 5.25 1.4 1.566.9 2.8 2.183 3.7 3.85.933 1.667 1.4 3.65 1.4 5.95v10.85c0 .467-.05.867-.15 1.2-.1.333-.3.583-.6.75-.3.2-.784.3-1.45.3-.634 0-1.117-.1-1.45-.3a1.201 1.201 0 0 1-.65-.75 4.76 4.76 0 0 1-.15-1.25V85.35c0-1.4-.234-2.617-.7-3.65-.467-1.033-1.167-1.833-2.1-2.4-.9-.567-2.05-.85-3.45-.85-1.9 0-3.467.55-4.7 1.65-1.2 1.067-1.9 2.5-2.1 4.3v11.85c0 .467-.05.867-.15 1.2-.1.333-.317.583-.65.75-.3.2-.784.3-1.45.3Zm36.307.25c-2 0-3.783-.333-5.35-1-1.566-.667-2.9-1.567-4-2.7a12.344 12.344 0 0 1-2.45-4c-.566-1.5-.85-3.117-.85-4.85 0-2.3.534-4.35 1.6-6.15 1.067-1.8 2.534-3.217 4.4-4.25 1.9-1.067 4.067-1.6 6.5-1.6 1.667 0 3.15.267 4.45.8 1.334.5 2.467 1.183 3.4 2.05.934.867 1.65 1.833 2.15 2.9s.75 2.133.75 3.2c0 1.7-.4 2.9-1.2 3.6-.8.667-1.783 1-2.95 1h-14.45c-.033 1.467.35 2.733 1.15 3.8a8.47 8.47 0 0 0 3.1 2.4c1.267.567 2.534.85 3.8.85.934 0 1.734-.05 2.4-.15.667-.1 1.25-.233 1.75-.4s.934-.333 1.3-.5c.367-.167.684-.333.95-.5.3-.167.584-.283.85-.35.3-.067.584-.033.85.1.3.1.534.317.7.65.2.267.334.517.4.75.067.233.1.483.1.75 0 .467-.4.983-1.2 1.55-.8.567-1.916 1.05-3.35 1.45-1.4.4-3 .6-4.8.6Zm-8-13.95h12.55c.634 0 1.1-.083 1.4-.25.334-.167.5-.617.5-1.35 0-.933-.283-1.767-.85-2.5-.566-.767-1.35-1.383-2.35-1.85-.966-.467-2.083-.7-3.35-.7-1.466 0-2.816.3-4.05.9-1.2.567-2.15 1.35-2.85 2.35-.7 1-1.033 2.133-1 3.4Zm25.802 13.7c-.633 0-1.116-.1-1.45-.3a1.23 1.23 0 0 1-.6-.75 7.097 7.097 0 0 1-.1-1.25V76.5c0-.5.05-.917.15-1.25.1-.333.3-.567.6-.7.3-.167.784-.25 1.45-.25.6 0 1.05.083 1.35.25.334.133.55.35.65.65.134.267.2.583.2.95l-.2 1.5c.234-.433.5-.867.8-1.3a5.66 5.66 0 0 1 1.2-1.15 6.664 6.664 0 0 1 1.75-.9c.7-.233 1.55-.35 2.55-.35.5 0 .967.05 1.4.15.467.067.9.183 1.3.35.434.167.8.367 1.1.6.3.2.534.433.7.7.2.233.3.517.3.85 0 .733-.233 1.367-.7 1.9-.466.5-.95.75-1.45.75-.433 0-.75-.05-.95-.15l-.6-.4c-.166-.133-.416-.25-.75-.35-.333-.133-.866-.2-1.6-.2-.5 0-1.033.1-1.6.3-.533.2-1.05.5-1.55.9-.5.367-.916.85-1.25 1.45-.3.6-.45 1.3-.45 2.1v13.4c0 .467-.05.867-.15 1.2-.1.333-.316.583-.65.75-.3.167-.783.25-1.45.25Z"/>
  <ellipse cx="24" cy="24.5" fill="#8484FF" rx="24" ry="24.5"/>
  <circle cx="40" cy="116" r="11" fill="#39B539"/>
</svg>
