<svg xmlns="http://www.w3.org/2000/svg" width="367" height="127" fill="none" viewBox="0 0 367 127">
  <path stroke="#000" stroke-linejoin="round" stroke-width="2" d="M39.744 113.471 24.42 27.276l74.702 54.59-59.378 31.605Z"/>
  <circle cx="101" cy="81" r="36" fill="#FF4E4E"/>
  <path fill="#000" d="M90.65 98.5c-.633 0-1.117-.1-1.45-.3a1.23 1.23 0 0 1-.6-.75 4.76 4.76 0 0 1-.15-1.25V65.85c0-.433.05-.817.15-1.15.133-.333.367-.6.7-.8.333-.2.8-.3 1.4-.3h10.95c1.6 0 3.067.25 4.4.75a9.112 9.112 0 0 1 3.55 2.2c1.033.967 1.833 2.15 2.4 3.55s.85 3.017.85 4.85c0 1.8-.283 3.4-.85 4.8s-1.367 2.583-2.4 3.55a10.889 10.889 0 0 1-3.6 2.15c-1.333.5-2.8.75-4.4.75H93v10.05c0 .467-.067.867-.2 1.2-.1.333-.317.583-.65.75-.3.2-.8.3-1.5.3ZM93 81.65h8.65c1.333 0 2.5-.25 3.5-.75a5.78 5.78 0 0 0 2.35-2.3c.567-1.033.85-2.283.85-3.75 0-1.4-.267-2.6-.8-3.6s-1.317-1.767-2.35-2.3c-1-.533-2.2-.8-3.6-.8H93v13.5Zm45.779 16.8c-.733 0-1.266-.15-1.6-.45-.3-.3-.483-.767-.55-1.4l.2-2.5c-.333.533-.85 1.15-1.55 1.85-.7.667-1.616 1.267-2.75 1.8-1.133.5-2.516.75-4.15.75-1.6 0-3.1-.317-4.5-.95a11.795 11.795 0 0 1-3.65-2.65 13.099 13.099 0 0 1-2.45-3.9c-.566-1.467-.85-3.033-.85-4.7 0-1.633.284-3.167.85-4.6.6-1.467 1.434-2.75 2.5-3.85a12.196 12.196 0 0 1 3.65-2.6 10.68 10.68 0 0 1 4.45-.95c1.467 0 2.717.2 3.75.6 1.034.367 1.917.867 2.65 1.5.767.6 1.434 1.283 2 2.05l-.1-2.1c-.033-.733.117-1.25.45-1.55.367-.333.934-.5 1.7-.5.634 0 1.084.1 1.35.3.3.2.5.483.6.85.1.367.15.817.15 1.35v19.3c0 .467-.05.883-.15 1.25-.1.367-.3.633-.6.8-.3.2-.766.3-1.4.3Zm-9.65-4.15c1.334 0 2.55-.35 3.65-1.05a7.364 7.364 0 0 0 2.65-2.8c.667-1.2 1-2.567 1-4.1 0-1.567-.35-2.933-1.05-4.1-.666-1.2-1.566-2.133-2.7-2.8a6.659 6.659 0 0 0-3.65-1.05c-1.566 0-2.933.367-4.1 1.1a7.659 7.659 0 0 0-2.7 2.85c-.666 1.2-1 2.567-1 4.1 0 1.5.334 2.85 1 4.05a7.645 7.645 0 0 0 2.75 2.8c1.2.667 2.584 1 4.15 1Zm29.161 4.2c-1.566 0-2.9-.15-4-.45-1.066-.3-1.95-.767-2.65-1.4-.7-.633-1.2-1.45-1.5-2.45-.3-1.033-.45-2.3-.45-3.8V68.3c0-.467.05-.867.15-1.2.1-.333.3-.583.6-.75.3-.2.767-.3 1.4-.3.634 0 1.117.1 1.45.3.334.167.55.417.65.75.1.3.15.683.15 1.15V90.4c0 .867.067 1.567.2 2.1.167.5.4.883.7 1.15.334.267.767.433 1.3.5.534.067 1.184.1 1.95.1.534 0 .967.05 1.3.15.334.1.584.3.75.6.167.3.25.75.25 1.35 0 .633-.1 1.117-.3 1.45-.166.3-.433.483-.8.55-.333.1-.716.15-1.15.15Zm-11.2-23.65 4.8.05 6.95-.1c.467 0 .867.05 1.2.15.334.067.584.267.75.6.2.3.3.767.3 1.4 0 .633-.083 1.117-.25 1.45-.166.3-.416.5-.75.6-.333.1-.733.15-1.2.15l-6.85-.1-5.05.05c-.7 0-1.183-.167-1.45-.5-.233-.333-.35-.883-.35-1.65 0-.733.15-1.267.45-1.6.3-.333.784-.5 1.45-.5Zm20.449 23.65c-.633 0-1.117-.1-1.45-.3a1.204 1.204 0 0 1-.65-.75 7.003 7.003 0 0 1-.1-1.25V65.4c0-.467.05-.867.15-1.2.1-.333.317-.583.65-.75.333-.2.817-.3 1.45-.3.667 0 1.15.1 1.45.3.333.167.533.417.6.75.1.333.15.75.15 1.25V77.8c.8-.933 1.767-1.767 2.9-2.5 1.167-.733 2.583-1.1 4.25-1.1 1.967 0 3.717.467 5.25 1.4 1.567.9 2.8 2.183 3.7 3.85.933 1.667 1.4 3.65 1.4 5.95v10.85c0 .467-.05.867-.15 1.2-.1.333-.3.583-.6.75-.3.2-.783.3-1.45.3-.633 0-1.117-.1-1.45-.3a1.204 1.204 0 0 1-.65-.75 4.76 4.76 0 0 1-.15-1.25V85.35c0-1.4-.233-2.617-.7-3.65-.467-1.033-1.167-1.833-2.1-2.4-.9-.567-2.05-.85-3.45-.85-1.9 0-3.467.55-4.7 1.65-1.2 1.067-1.9 2.5-2.1 4.3v11.85c0 .467-.05.867-.15 1.2-.1.333-.317.583-.65.75-.3.2-.783.3-1.45.3Zm27.808 0c-.667 0-1.167-.1-1.5-.3a1.23 1.23 0 0 1-.6-.75 4.76 4.76 0 0 1-.15-1.25V65.85c0-.867.167-1.45.5-1.75.367-.333 1-.5 1.9-.5h20.1c.467 0 .85.05 1.15.15.333.1.583.317.75.65.167.333.25.833.25 1.5s-.1 1.167-.3 1.5c-.167.3-.417.5-.75.6-.333.1-.733.15-1.2.15h-17.9V78.5h12.45c.467 0 .85.05 1.15.15.333.1.583.3.75.6.167.3.25.767.25 1.4 0 .6-.083 1.05-.25 1.35-.167.3-.417.5-.75.6-.3.067-.7.1-1.2.1h-12.4v13.55c0 .467-.05.867-.15 1.2-.1.333-.317.583-.65.75-.3.2-.783.3-1.45.3Zm30.116 0c-.633 0-1.116-.1-1.45-.3a1.23 1.23 0 0 1-.6-.75c-.1-.333-.15-.733-.15-1.2V76.5c0-.467.05-.867.15-1.2.1-.333.3-.583.6-.75.334-.167.834-.25 1.5-.25.634 0 1.1.1 1.4.3.3.167.5.417.6.75.1.333.15.75.15 1.25v19.7c0 .467-.05.867-.15 1.2-.1.333-.316.583-.65.75-.3.167-.766.25-1.4.25Zm0-30.2c-.733 0-1.283-.1-1.65-.3a1.765 1.765 0 0 1-.75-.95c-.1-.4-.15-.867-.15-1.4 0-.533.067-.983.2-1.35.134-.4.384-.683.75-.85.367-.2.917-.3 1.65-.3.7 0 1.234.1 1.6.3.367.2.6.5.7.9.134.4.2.867.2 1.4 0 .533-.066 1-.2 1.4-.1.367-.333.65-.7.85-.366.2-.916.3-1.65.3Zm10.932 30.15c-.633 0-1.117-.1-1.45-.3a1.23 1.23 0 0 1-.6-.75 6.184 6.184 0 0 1-.1-1.2V76.35c0-.433.05-.8.15-1.1.1-.3.3-.533.6-.7.333-.167.817-.25 1.45-.25.5 0 .883.067 1.15.2.3.1.5.25.6.45.133.2.217.417.25.65.033.233.05.45.05.65l-.1 2.3a7.98 7.98 0 0 1 1.25-1.6c.5-.533 1.083-1 1.75-1.4a8.427 8.427 0 0 1 2.15-1c.8-.233 1.65-.35 2.55-.35 1.467 0 2.817.267 4.05.8a8.178 8.178 0 0 1 3.15 2.25c.9.967 1.583 2.133 2.05 3.5.5 1.367.75 2.917.75 4.65v10.85c0 .467-.05.867-.15 1.2-.067.333-.267.583-.6.75-.3.167-.767.25-1.4.25-.667 0-1.167-.1-1.5-.3a1.23 1.23 0 0 1-.6-.75c-.1-.333-.15-.733-.15-1.2V85.35c0-1.4-.233-2.617-.7-3.65-.467-1.033-1.167-1.833-2.1-2.4-.933-.6-2.117-.9-3.55-.9-1.367 0-2.567.3-3.6.9a6.034 6.034 0 0 0-2.35 2.4c-.533 1.033-.8 2.25-.8 3.65v10.9c0 .467-.05.867-.15 1.2-.1.333-.317.583-.65.75-.3.167-.767.25-1.4.25Zm36.082.05c-1.5 0-2.933-.3-4.3-.9a10.906 10.906 0 0 1-3.6-2.55c-1-1.1-1.8-2.383-2.4-3.85-.567-1.5-.85-3.133-.85-4.9 0-1.733.283-3.333.85-4.8.6-1.467 1.4-2.733 2.4-3.8a10.906 10.906 0 0 1 3.6-2.55c1.367-.6 2.8-.9 4.3-.9 1.633 0 3.1.3 4.4.9a9.527 9.527 0 0 1 3.4 2.55c.967 1.067 1.7 2.35 2.2 3.85.5 1.467.75 3.067.75 4.8.033 1.767-.217 3.383-.75 4.85-.5 1.467-1.217 2.75-2.15 3.85a9.527 9.527 0 0 1-3.4 2.55c-1.3.6-2.783.9-4.45.9Zm.65-4.25c1.4 0 2.65-.333 3.75-1a7.01 7.01 0 0 0 2.65-2.75c.667-1.2 1-2.567 1-4.1 0-1.567-.333-2.933-1-4.1-.633-1.2-1.517-2.133-2.65-2.8-1.1-.667-2.35-1-3.75-1s-2.667.333-3.8 1-2.033 1.6-2.7 2.8c-.633 1.167-.95 2.533-.95 4.1 0 1.533.317 2.9.95 4.1a7.378 7.378 0 0 0 2.7 2.75c1.167.667 2.433 1 3.8 1Zm9.8 4.25c-.733 0-1.267-.133-1.6-.4-.333-.267-.533-.717-.6-1.35v-31.3c0-.5.033-.917.1-1.25.1-.333.3-.583.6-.75.333-.2.817-.3 1.45-.3s1.1.1 1.4.3c.333.167.55.417.65.75.1.333.15.733.15 1.2v30.8c0 .467-.05.883-.15 1.25-.1.333-.3.583-.6.75-.3.2-.767.3-1.4.3Zm19.797.25c-2 0-3.784-.333-5.35-1-1.567-.667-2.9-1.567-4-2.7a12.31 12.31 0 0 1-2.45-4c-.567-1.5-.85-3.117-.85-4.85 0-2.3.533-4.35 1.6-6.15 1.066-1.8 2.533-3.217 4.4-4.25 1.9-1.067 4.066-1.6 6.5-1.6 1.666 0 3.15.267 4.45.8 1.333.5 2.466 1.183 3.4 2.05.933.867 1.65 1.833 2.15 2.9s.75 2.133.75 3.2c0 1.7-.4 2.9-1.2 3.6-.8.667-1.784 1-2.95 1h-14.45c-.034 1.467.35 2.733 1.15 3.8a8.453 8.453 0 0 0 3.1 2.4c1.266.567 2.533.85 3.8.85.933 0 1.733-.05 2.4-.15.666-.1 1.25-.233 1.75-.4s.933-.333 1.3-.5a8.31 8.31 0 0 0 .95-.5c.3-.167.583-.283.85-.35.3-.067.583-.033.85.1.3.1.533.317.7.65.2.267.333.517.4.75.066.233.1.483.1.75 0 .467-.4.983-1.2 1.55-.8.567-1.917 1.05-3.35 1.45-1.4.4-3 .6-4.8.6Zm-8-13.95h12.55c.633 0 1.1-.083 1.4-.25.333-.167.5-.617.5-1.35 0-.933-.284-1.767-.85-2.5-.567-.767-1.35-1.383-2.35-1.85-.967-.467-2.084-.7-3.35-.7-1.467 0-2.817.3-4.05.9-1.2.567-2.15 1.35-2.85 2.35-.7 1-1.034 2.133-1 3.4Zm25.802 13.7c-.634 0-1.117-.1-1.45-.3a1.23 1.23 0 0 1-.6-.75 7.003 7.003 0 0 1-.1-1.25V76.5c0-.5.05-.917.15-1.25.1-.333.3-.567.6-.7.3-.167.783-.25 1.45-.25.6 0 1.05.083 1.35.25.333.133.55.35.65.65.133.267.2.583.2.95l-.2 1.5c.233-.433.5-.867.8-1.3a5.614 5.614 0 0 1 1.2-1.15 6.649 6.649 0 0 1 1.75-.9c.7-.233 1.55-.35 2.55-.35.5 0 .966.05 1.4.15.466.067.9.183 1.3.35.433.167.8.367 1.1.6.3.2.533.433.7.7.2.233.3.517.3.85 0 .733-.234 1.367-.7 1.9-.467.5-.95.75-1.45.75-.434 0-.75-.05-.95-.15l-.6-.4c-.167-.133-.417-.25-.75-.35-.334-.133-.867-.2-1.6-.2-.5 0-1.034.1-1.6.3-.534.2-1.05.5-1.55.9-.5.367-.917.85-1.25 1.45-.3.6-.45 1.3-.45 2.1v13.4c0 .467-.05.867-.15 1.2-.1.333-.317.583-.65.75-.3.167-.784.25-1.45.25Z"/>
  <ellipse cx="24" cy="24.5" fill="#8484FF" rx="24" ry="24.5"/>
  <circle cx="40" cy="116" r="11" fill="#39B539"/>
</svg>
